<svg width="556" height="205" xmlns="http://www.w3.org/2000/svg" xmlns:xlink="http://www.w3.org/1999/xlink" xml:space="preserve" overflow="hidden"><defs><clipPath id="clip0"><rect x="388" y="269" width="504" height="181"/></clipPath></defs><g transform="translate(-362 -254)"><g clip-path="url(#clip0)"><path d="M-80.6736 0 421.985 0 421.985 180.585-80.6736 180.585Z" fill="#FFFFFF" transform="matrix(1.00052 0 0 1 468.946 269.836)"/><path d="M0 12.4113-4.34396 16.7553-13.0319 16.7553-13.0319 8.06736-4.34396 8.06736Z" stroke="#0000FF" stroke-width="0.620566" fill="none" transform="matrix(1.00052 0 0 1 468.946 269.836)"/><g><path d="M3.0085 2.98616C3.00106 3.75318 2.49467 4.1851 1.59361 4.1851 0.685105 4.1851 0.0968083 3.71595 0.0968083 2.99361 0.0968083 2.38297 0.409573 2.09255 1.33298 1.86914L1.91382 1.72766C2.34574 1.6234 2.51701 1.46702 2.51701 1.19149 2.51701 0.819147 2.15212 0.573403 1.60851 0.573403 1.2734 0.573403 0.990423 0.670211 0.83404 0.83404 0.737232 0.945742 0.692551 1.05744 0.655317 1.33298L0 1.33298C0.0297872 0.431914 0.536169 0 1.55638 0 2.53936 0 3.16489 0.484041 3.16489 1.23617 3.16489 1.81702 2.83723 2.13723 2.06276 2.3234L1.46702 2.46489C0.960636 2.58404 0.744679 2.74787 0.744679 3.0234 0.744679 3.38829 1.06489 3.61169 1.57127 3.61169 2.07021 3.61169 2.33829 3.39574 2.35319 2.98616L3.0085 2.98616Z" transform="matrix(1.00052 0 0 -1 421.371 285.092)"/></g><g><path d="M3.67127 0.536169C3.60425 0.521275 3.57446 0.521275 3.53723 0.521275 3.32127 0.521275 3.20212 0.632977 3.20212 0.826594L3.20212 3.1202C3.20212 3.81276 2.69574 4.1851 1.7351 4.1851 1.1617 4.1851 0.707445 4.02127 0.439361 3.73084 0.260638 3.52978 0.18617 3.30637 0.171276 2.91914L0.796806 2.91914C0.848934 3.39574 1.13191 3.61169 1.71276 3.61169 2.27872 3.61169 2.58404 3.40318 2.58404 3.03084L2.58404 2.86701C2.57659 2.59893 2.44255 2.50212 1.93617 2.4351 1.05744 2.3234 0.923402 2.29361 0.685105 2.1968 0.23085 2.00319 0 1.66063 0 1.15425 0 0.446807 0.491488 0 1.28085 0 1.77234 0 2.16702 0.171276 2.60638 0.573403 2.65106 0.171276 2.84467 0 3.2468 0 3.38084 0 3.46276 0.0148936 3.67127 0.0670211L3.67127 0.536169M2.58404 1.4C2.58404 1.19149 2.52446 1.06489 2.33829 0.893615 2.0851 0.662764 1.77978 0.543616 1.41489 0.543616 0.930849 0.543616 0.647871 0.774466 0.647871 1.16915 0.647871 1.57872 0.915955 1.78723 1.58617 1.88404 2.24893 1.9734 2.37553 2.00319 2.58404 2.09999L2.58404 1.4Z" transform="matrix(1.00052 0 0 -1 425.156 285.092)"/></g><g><path d="M2.04787 0 3.54467 3.90212 2.84467 3.90212 1.74255 0.737232 0.699998 3.90212 0 3.90212 1.37021 0 2.04787 0Z" transform="matrix(1.00052 0 0 -1 429.06 284.921)"/></g><g><path d="M3.52233 1.91383C3.52233 2.50957 3.47765 2.86701 3.36595 3.15744 3.11276 3.79786 2.51701 4.1851 1.78723 4.1851 0.699998 4.1851 0 3.3585 0 2.07021 0 0.781913 0.670211 0 1.77234 0 2.66595 0 3.28403 0.506382 3.44042 1.35532L2.81489 1.35532C2.64361 0.841487 2.29361 0.573403 1.79468 0.573403 1.4 0.573403 1.06489 0.752126 0.856381 1.07978 0.707445 1.30319 0.655317 1.52659 0.647871 1.91383L3.52233 1.91383M0.662764 2.42021C0.714892 3.14255 1.15425 3.61169 1.77978 3.61169 2.41276 3.61169 2.85212 3.1202 2.85212 2.42021L0.662764 2.42021Z" transform="matrix(1.00052 0 0 -1 433.009 285.092)"/></g><g><path d="M4.46807 0.37234 0 0.37234 0 0 4.46807 0 4.46807 0.37234Z" transform="matrix(1.00052 0 0 -1 436.689 286.231)"/></g><g><path d="M3.67127 0.536169C3.60425 0.521275 3.57446 0.521275 3.53723 0.521275 3.32127 0.521275 3.20212 0.632977 3.20212 0.826594L3.20212 3.1202C3.20212 3.81276 2.69574 4.1851 1.7351 4.1851 1.1617 4.1851 0.707445 4.02127 0.439361 3.73084 0.260638 3.52978 0.18617 3.30637 0.171276 2.91914L0.796806 2.91914C0.848934 3.39574 1.13191 3.61169 1.71276 3.61169 2.27872 3.61169 2.58404 3.40318 2.58404 3.03084L2.58404 2.86701C2.57659 2.59893 2.44255 2.50212 1.93617 2.4351 1.05744 2.3234 0.923402 2.29361 0.685105 2.1968 0.23085 2.00319 0 1.66063 0 1.15425 0 0.446807 0.491488 0 1.28085 0 1.77234 0 2.16702 0.171276 2.60638 0.573403 2.65106 0.171276 2.84467 0 3.2468 0 3.38084 0 3.46276 0.0148936 3.67127 0.0670211L3.67127 0.536169M2.58404 1.4C2.58404 1.19149 2.52446 1.06489 2.33829 0.893615 2.0851 0.662764 1.77978 0.543616 1.41489 0.543616 0.930849 0.543616 0.647871 0.774466 0.647871 1.16915 0.647871 1.57872 0.915955 1.78723 1.58617 1.88404 2.24893 1.9734 2.37553 2.00319 2.58404 2.09999L2.58404 1.4Z" transform="matrix(1.00052 0 0 -1 441.309 285.092)"/></g><g><path d="M4.46807 0.37234 0 0.37234 0 0 4.46807 0 4.46807 0.37234Z" transform="matrix(1.00052 0 0 -1 444.974 286.231)"/></g><g><path d="M0 3.90212 0 0 0.62553 0 0.62553 2.15212C0.62553 2.94893 1.04255 3.4702 1.68297 3.4702 2.17446 3.4702 2.48723 3.17233 2.48723 2.70318L2.48723 0 3.10531 0 3.10531 2.94893C3.10531 3.5968 2.62127 4.01382 1.86914 4.01382 1.28829 4.01382 0.915955 3.79042 0.573403 3.2468L0.573403 3.90212 0 3.90212Z" transform="matrix(1.00052 0 0 -1 449.802 284.921)"/></g><path d="M302.836 17.3758 340.07 17.3758 340.07 67.0211 302.836 67.0211Z" transform="matrix(1.00052 0 0 1 468.946 269.836)"/><path d="M300.354 14.8936 337.588 14.8936 337.588 64.5388 300.354 64.5388Z" fill="#477777" transform="matrix(1.00052 0 0 1 468.946 269.836)"/><path d="M300.354 14.8936 337.588 14.8936 337.588 64.5388 300.354 64.5388Z" stroke="#2D2D2D" stroke-width="0.620566" fill="none" transform="matrix(1.00052 0 0 1 468.946 269.836)"/><path d="M297.872 12.4113 335.106 12.4113 335.106 62.0566 297.872 62.0566Z" fill="#73ACAC" transform="matrix(1.00052 0 0 1 468.946 269.836)"/><path d="M297.872 12.4113 335.106 12.4113 335.106 62.0566 297.872 62.0566Z" stroke="#2D2D2D" stroke-width="0.620566" fill="none" transform="matrix(1.00052 0 0 1 468.946 269.836)"/><path d="M297.872 39.0956 302.216 37.2339 297.872 35.3722" stroke="#2D2D2D" stroke-width="0.620566" fill="none" transform="matrix(1.00052 0 0 1 468.946 269.836)"/><g><path d="M0.62553 5.42871 0 5.42871 0 0 0.62553 0 0.62553 5.42871Z" transform="matrix(1.00052 0 0 -1 765.809 279.465)"/></g><g><path d="M3.67127 0.536169C3.60425 0.521275 3.57446 0.521275 3.53723 0.521275 3.32127 0.521275 3.20212 0.632977 3.20212 0.826594L3.20212 3.1202C3.20212 3.81276 2.69574 4.1851 1.7351 4.1851 1.1617 4.1851 0.707445 4.02127 0.439361 3.73084 0.260638 3.52978 0.18617 3.30637 0.171276 2.91914L0.796806 2.91914C0.848934 3.39574 1.13191 3.61169 1.71276 3.61169 2.27872 3.61169 2.58404 3.40318 2.58404 3.03084L2.58404 2.86701C2.57659 2.59893 2.44255 2.50212 1.93617 2.4351 1.05744 2.3234 0.923402 2.29361 0.685105 2.1968 0.23085 2.00319 0 1.66063 0 1.15425 0 0.446807 0.491488 0 1.28085 0 1.77234 0 2.16702 0.171276 2.60638 0.573403 2.65106 0.171276 2.84467 0 3.2468 0 3.38084 0 3.46276 0.0148936 3.67127 0.0670211L3.67127 0.536169M2.58404 1.4C2.58404 1.19149 2.52446 1.06489 2.33829 0.893615 2.0851 0.662764 1.77978 0.543616 1.41489 0.543616 0.930849 0.543616 0.647871 0.774466 0.647871 1.16915 0.647871 1.57872 0.915955 1.78723 1.58617 1.88404 2.24893 1.9734 2.37553 2.00319 2.58404 2.09999L2.58404 1.4Z" transform="matrix(1.00052 0 0 -1 767.269 279.636)"/></g><g><path d="M1.78723 4.07339 1.14681 4.07339 1.14681 5.14573 0.528722 5.14573 0.528722 4.07339 0 4.07339 0 3.56701 0.528722 3.56701 0.528722 0.618084C0.528722 0.215957 0.796807 0 1.28085 0 1.44468 0 1.57872 0.0148936 1.78723 0.0521275L1.78723 0.573403C1.69787 0.551062 1.61595 0.543616 1.48936 0.543616 1.22127 0.543616 1.14681 0.618084 1.14681 0.893615L1.14681 3.56701 1.78723 3.56701 1.78723 4.07339Z" transform="matrix(1.00052 0 0 -1 771.203 279.636)"/></g><g><path d="M3.27659 2.76276C3.2468 3.14255 3.16489 3.38829 3.01595 3.60425 2.74787 3.96914 2.27872 4.1851 1.7351 4.1851 0.677658 4.1851 0 3.35106 0 2.05531 0 0.796807 0.670211 0 1.72766 0 2.6585 0 3.2468 0.558509 3.32127 1.5117L2.69574 1.5117C2.59148 0.886168 2.27127 0.573403 1.74255 0.573403 1.05744 0.573403 0.647871 1.13191 0.647871 2.05531 0.647871 3.03084 1.05 3.61169 1.72766 3.61169 2.24893 3.61169 2.57659 3.30637 2.65106 2.76276L3.27659 2.76276Z" transform="matrix(1.00052 0 0 -1 773.401 279.636)"/></g><g><path d="M0 5.42871 0 0 0.618084 0 0.618084 2.15212C0.618084 2.94893 1.0351 3.4702 1.67553 3.4702 1.88404 3.4702 2.07765 3.41063 2.22659 3.29893 2.40531 3.16489 2.47978 2.97872 2.47978 2.70318L2.47978 0 3.09786 0 3.09786 2.94893C3.09786 3.60425 2.62872 4.01382 1.86914 4.01382 1.31808 4.01382 0.982976 3.84254 0.618084 3.36595L0.618084 5.42871 0 5.42871Z" transform="matrix(1.00052 0 0 -1 777.417 279.465)"/></g><g><path d="M4.46807 0.37234 0 0.37234 0 0 4.46807 0 4.46807 0.37234Z" transform="matrix(1.00052 0 0 -1 780.874 280.775)"/></g><g><path d="M3.67127 0.536169C3.60425 0.521275 3.57446 0.521275 3.53723 0.521275 3.32127 0.521275 3.20212 0.632977 3.20212 0.826594L3.20212 3.1202C3.20212 3.81276 2.69574 4.1851 1.7351 4.1851 1.1617 4.1851 0.707445 4.02127 0.439361 3.73084 0.260638 3.52978 0.18617 3.30637 0.171276 2.91914L0.796806 2.91914C0.848934 3.39574 1.13191 3.61169 1.71276 3.61169 2.27872 3.61169 2.58404 3.40318 2.58404 3.03084L2.58404 2.86701C2.57659 2.59893 2.44255 2.50212 1.93617 2.4351 1.05744 2.3234 0.923402 2.29361 0.685105 2.1968 0.23085 2.00319 0 1.66063 0 1.15425 0 0.446807 0.491488 0 1.28085 0 1.77234 0 2.16702 0.171276 2.60638 0.573403 2.65106 0.171276 2.84467 0 3.2468 0 3.38084 0 3.46276 0.0148936 3.67127 0.0670211L3.67127 0.536169M2.58404 1.4C2.58404 1.19149 2.52446 1.06489 2.33829 0.893615 2.0851 0.662764 1.77978 0.543616 1.41489 0.543616 0.930849 0.543616 0.647871 0.774466 0.647871 1.16915 0.647871 1.57872 0.915955 1.78723 1.58617 1.88404 2.24893 1.9734 2.37553 2.00319 2.58404 2.09999L2.58404 1.4Z" transform="matrix(1.00052 0 0 -1 785.493 279.636)"/></g><g><path d="M1.3851 7.00743 0 7.00743 0 0 1.3851 0 1.3851 0.536169 0.618083 0.536169 0.618083 6.47126 1.3851 6.47126 1.3851 7.00743Z" transform="matrix(1.00052 0 0 -1 789.8 281.043)"/></g><g><path d="M1.40744 2.65106 1.48936 2.65106 1.76489 2.65106C2.47978 2.65106 2.85957 2.31595 2.85957 1.66808 2.85957 0.990423 2.44999 0.58085 1.77234 0.58085 1.05 0.58085 0.699998 0.945742 0.655317 1.7351L0 1.7351C0.0297872 1.30319 0.104255 1.02021 0.23085 0.781913 0.506382 0.260638 1.02021 0 1.74255 0 2.82978 0 3.52978 0.655317 3.52978 1.67553 3.52978 2.36063 3.26914 2.73297 2.63616 2.95638 3.12765 3.15744 3.3734 3.52978 3.3734 4.07339 3.3734 4.9968 2.77021 5.55531 1.76489 5.55531 0.699998 5.55531 0.134042 4.95956 0.111702 3.8202L0.767019 3.8202C0.774466 4.14786 0.804253 4.33403 0.886168 4.49786 1.0351 4.80318 1.36276 4.9819 1.77234 4.9819 2.35319 4.9819 2.70318 4.6319 2.70318 4.05105 2.70318 3.67127 2.56914 3.44042 2.27872 3.31382 2.09999 3.23935 1.8617 3.20957 1.40744 3.20212L1.40744 2.65106Z" transform="matrix(1.00052 0 0 -1 791.633 279.636)"/></g><g><path d="M0.774466 0.774466 0 0.774466 0 0 0.774466 0 0.774466 0.774466Z" transform="matrix(1.00052 0 0 -1 796.185 279.465)"/></g><g><path d="M0.774466 0.774466 0 0.774466 0 0 0.774466 0 0.774466 0.774466Z" transform="matrix(1.00052 0 0 -1 798.256 279.465)"/></g><g><path d="M1.72766 5.55531C1.23617 5.55531 0.78936 5.3319 0.513829 4.96701 0.171276 4.49041 0 3.77552 0 2.77765 0 0.960636 0.595743 0 1.72766 0 2.84467 0 3.45531 0.960636 3.45531 2.73297 3.45531 3.77552 3.29148 4.47552 2.94148 4.96701 2.66595 5.33935 2.22659 5.55531 1.72766 5.55531M1.72766 4.97446C2.4351 4.97446 2.7851 4.25212 2.7851 2.79255 2.7851 1.25851 2.44255 0.543616 1.71276 0.543616 1.02021 0.543616 0.670211 1.28829 0.670211 2.77021 0.670211 4.25212 1.02021 4.97446 1.72766 4.97446Z" transform="matrix(1.00052 0 0 -1 800 279.636)"/></g><g><path d="M0 0 1.3851 0 1.3851 7.00743 0 7.00743 0 6.47126 0.767019 6.47126 0.767019 0.536169 0 0.536169 0 0Z" transform="matrix(1.00052 0 0 -1 803.993 281.043)"/></g><path d="M291.666 24.8226 297.872 24.8226" stroke="#06476F" stroke-width="1.8617" fill="none" transform="matrix(1.00052 0 0 1 468.946 269.836)"/><g><path d="M0 0 1.74379 0C2.88563 0 3.58687 0.856381 3.58687 2.26506 3.58687 3.66754 2.89184 4.52392 1.74379 4.52392L0 4.52392 0 0M0.577126 0.508864 0.577126 4.01506 1.6445 4.01506C2.53811 4.01506 3.00974 3.41311 3.00974 2.25886 3.00974 1.11081 2.53811 0.508864 1.6445 0.508864L0.577126 0.508864Z" fill="#06476F" transform="matrix(1.00052 0 0 -1 768.766 296.886)"/></g><path d="M291.666 37.2339 297.872 37.2339" stroke="#06476F" stroke-width="1.8617" fill="none" transform="matrix(1.00052 0 0 1 468.946 269.836)"/><g><path d="M3.81027 3.26418C3.63031 4.25708 3.05939 4.74112 2.06648 4.74112 1.45833 4.74112 0.968083 4.54875 0.632977 4.17641 0.223404 3.7296 0 3.08421 0 2.35194 0 1.60727 0.229609 0.968083 0.651594 0.527481 1.00532 0.167553 1.45212 0 2.04166 0 3.14627 0 3.76683 0.595743 3.90336 1.79344L3.30762 1.79344C3.25797 1.48315 3.19591 1.27216 3.10283 1.0922 2.91666 0.719856 2.53191 0.508864 2.04787 0.508864 1.14805 0.508864 0.577126 1.22872 0.577126 2.35815 0.577126 3.51861 1.11702 4.23226 1.99822 4.23226 2.36436 4.23226 2.70567 4.12676 2.89184 3.9468 3.05939 3.79166 3.15247 3.60549 3.22074 3.26418L3.81027 3.26418Z" fill="#06476F" transform="matrix(1.00052 0 0 -1 772.857 309.441)"/></g><g><path d="M0.577126 4.52392 0 4.52392 0 0 2.81116 0 2.81116 0.508864 0.577126 0.508864 0.577126 4.52392Z" fill="#06476F" transform="matrix(1.00052 0 0 -1 777.539 309.298)"/></g><g><path d="M0.577126 1.58244 1.3156 2.32092 2.91045 0 3.59308 0 1.73138 2.68084 3.57446 4.52392 2.82978 4.52392 0.577126 2.23404 0.577126 4.52392 0 4.52392 0 0 0.577126 0 0.577126 1.58244Z" fill="#06476F" transform="matrix(1.00052 0 0 -1 780.984 309.298)"/></g><path d="M291.666 49.6453 297.872 49.6453" stroke="#06476F" stroke-width="1.8617" fill="none" transform="matrix(1.00052 0 0 1 468.946 269.836)"/><g><path d="M3.4007 3.33864C3.4007 3.64893 3.38208 3.73581 3.28279 3.9468 3.03457 4.46807 2.50709 4.74112 1.74379 4.74112 0.750885 4.74112 0.136524 4.23226 0.136524 3.41311 0.136524 2.86081 0.42819 2.51329 1.02393 2.35815L2.14716 2.06028C2.72428 1.91134 2.97872 1.68173 2.97872 1.32801 2.97872 1.08599 2.8484 0.837764 2.65602 0.701239 2.47606 0.570921 2.1906 0.508864 1.82446 0.508864 1.32801 0.508864 0.999111 0.626771 0.781913 0.887409 0.61436 1.08599 0.539892 1.30319 0.546098 1.58244L0 1.58244C0.00620567 1.16666 0.0868792 0.893615 0.266843 0.645388 0.577126 0.217198 1.0984 0 1.78723 0 2.32712 0 2.76772 0.124113 3.05939 0.347517 3.36347 0.589538 3.55584 0.992905 3.55584 1.38386 3.55584 1.94237 3.20833 2.35194 2.59396 2.5195L1.45833 2.82357C0.912232 2.97251 0.713651 3.14627 0.713651 3.49379 0.713651 3.953 1.11702 4.25708 1.72517 4.25708 2.44503 4.25708 2.8484 3.93439 2.8546 3.33864L3.4007 3.33864Z" fill="#06476F" transform="matrix(1.00052 0 0 -1 768.511 321.852)"/></g><g><path d="M3.81027 3.26418C3.63031 4.25708 3.05939 4.74112 2.06648 4.74112 1.45833 4.74112 0.968083 4.54875 0.632977 4.17641 0.223404 3.7296 0 3.08421 0 2.35194 0 1.60727 0.229609 0.968083 0.651594 0.527481 1.00532 0.167553 1.45212 0 2.04166 0 3.14627 0 3.76683 0.595743 3.90336 1.79344L3.30762 1.79344C3.25797 1.48315 3.19591 1.27216 3.10283 1.0922 2.91666 0.719856 2.53191 0.508864 2.04787 0.508864 1.14805 0.508864 0.577126 1.22872 0.577126 2.35815 0.577126 3.51861 1.11702 4.23226 1.99822 4.23226 2.36436 4.23226 2.70567 4.12676 2.89184 3.9468 3.05939 3.79166 3.15247 3.60549 3.22074 3.26418L3.81027 3.26418Z" fill="#06476F" transform="matrix(1.00052 0 0 -1 772.652 321.852)"/></g><g><path d="M0.577126 4.52392 0 4.52392 0 0 2.81116 0 2.81116 0.508864 0.577126 0.508864 0.577126 4.52392Z" fill="#06476F" transform="matrix(1.00052 0 0 -1 777.334 321.709)"/></g><g><path d="M0.577126 1.94858 2.06648 1.94858C2.58155 1.94858 2.81116 1.70035 2.81116 1.14184L2.80496 0.738473C2.80496 0.459219 2.8546 0.18617 2.93528 0L3.63652 0 3.63652 0.14273C3.41932 0.291666 3.37588 0.453013 3.36347 1.05496 3.35726 1.79964 3.23935 2.02304 2.74911 2.23404 3.25797 2.48847 3.46276 2.79255 3.46276 3.31382 3.46276 4.09573 2.97872 4.52392 2.0851 4.52392L0 4.52392 0 0 0.577126 0 0.577126 1.94858M0.577126 2.45744 0.577126 4.01506 1.9734 4.01506C2.29609 4.01506 2.48226 3.96542 2.62499 3.8413 2.78013 3.71098 2.86081 3.5062 2.86081 3.23935 2.86081 2.69946 2.58776 2.45744 1.9734 2.45744L0.577126 2.45744Z" fill="#06476F" transform="matrix(1.00052 0 0 -1 780.867 321.709)"/></g><g><path d="M2.22659 1.30319 2.22659 0 2.88191 0 2.88191 1.30319 3.66382 1.30319 3.66382 1.89148 2.88191 1.89148 2.88191 5.38403 2.39787 5.38403 0 1.99574 0 1.30319 2.22659 1.30319M2.22659 1.89148 0.573403 1.89148 2.22659 4.26701 2.22659 1.89148Z" fill="#06476F" transform="matrix(1.00052 0 0 -1 751.856 317.319)"/></g><g><path d="M0 1.82446 0 0.99787 0.201063 0 0.498935 0 0.699998 0.99787 0.699998 1.82446 0 1.82446Z" fill="#06476F" transform="matrix(1.00052 0 0 -1 756.148 313.864)"/></g><g><path d="M0 5.42871 0 0 0.618084 0 0.618084 2.15212C0.618084 2.94893 1.0351 3.4702 1.67553 3.4702 1.88404 3.4702 2.07765 3.41063 2.22659 3.29893 2.40531 3.16489 2.47978 2.97872 2.47978 2.70318L2.47978 0 3.09786 0 3.09786 2.94893C3.09786 3.60425 2.62872 4.01382 1.86914 4.01382 1.31808 4.01382 0.982976 3.84254 0.618084 3.36595L0.618084 5.42871 0 5.42871Z" fill="#06476F" transform="matrix(1.00052 0 0 -1 757.735 317.319)"/></g><g><path d="M1.72766 5.55531C1.23617 5.55531 0.78936 5.3319 0.513829 4.96701 0.171276 4.49041 0 3.77552 0 2.77765 0 0.960636 0.595743 0 1.72766 0 2.84467 0 3.45531 0.960636 3.45531 2.73297 3.45531 3.77552 3.29148 4.47552 2.94148 4.96701 2.66595 5.33935 2.22659 5.55531 1.72766 5.55531M1.72766 4.97446C2.4351 4.97446 2.7851 4.25212 2.7851 2.79255 2.7851 1.25851 2.44255 0.543616 1.71276 0.543616 1.02021 0.543616 0.670211 1.28829 0.670211 2.77021 0.670211 4.25212 1.02021 4.97446 1.72766 4.97446Z" fill="#06476F" transform="matrix(1.00052 0 0 -1 761.676 317.49)"/></g><path d="M341.311 37.2339 335.106 37.2339" stroke="#06476F" stroke-width="1.8617" fill="none" transform="matrix(1.00052 0 0 1 468.946 269.836)"/><g><path d="M4.31293 0.359928 3.7296 0.837764C4.15779 1.30939 4.36878 1.88652 4.36878 2.60638 4.36878 4.01506 3.48758 4.96453 2.18439 4.96453 0.874998 4.96453 0 4.01506 0 2.59397 0 1.17908 0.874998 0.223404 2.18439 0.223404 2.6374 0.223404 3.00354 0.322694 3.36967 0.539892L4.02127 0 4.31293 0.359928M2.74911 1.63829 2.46365 1.29078 2.92286 0.906026C2.65602 0.775707 2.45124 0.732268 2.17819 0.732268 1.21631 0.732268 0.577126 1.47695 0.577126 2.59397 0.577126 3.71098 1.21631 4.45566 2.18439 4.45566 3.14627 4.45566 3.79166 3.71098 3.79166 2.60017 3.79166 2.01063 3.63652 1.56383 3.30141 1.18528L2.74911 1.63829Z" fill="#06476F" transform="matrix(1.00052 0 0 -1 798.388 309.664)"/></g><path d="M48.4041 29.7872 73.2268 39.0956 73.2268 57.7126 48.4041 67.0211Z" transform="matrix(1.00052 0 0 1 468.946 269.836)"/><path d="M45.9219 27.3049 70.7445 36.6134 70.7445 55.2304 45.9219 64.5388Z" fill="#477777" transform="matrix(1.00052 0 0 1 468.946 269.836)"/><path d="M45.9219 27.3049 70.7445 36.6134 70.7445 55.2304 45.9219 64.5388Z" stroke="#2D2D2D" stroke-width="0.620566" fill="none" transform="matrix(1.00052 0 0 1 468.946 269.836)"/><path d="M43.4396 24.8226 68.2622 34.1311 68.2622 52.7481 43.4396 62.0566Z" fill="#73ACAC" transform="matrix(1.00052 0 0 1 468.946 269.836)"/><path d="M43.4396 24.8226 68.2622 34.1311 68.2622 52.7481 43.4396 62.0566Z" stroke="#2D2D2D" stroke-width="0.620566" fill="none" transform="matrix(1.00052 0 0 1 468.946 269.836)"/><g><path d="M0.62553 5.42871 0 5.42871 0 0 0.62553 0 0.62553 5.42871Z" transform="matrix(1.00052 0 0 -1 527.816 296.84)"/></g><g><path d="M3.67127 0.536169C3.60425 0.521275 3.57446 0.521275 3.53723 0.521275 3.32127 0.521275 3.20212 0.632977 3.20212 0.826594L3.20212 3.1202C3.20212 3.81276 2.69574 4.1851 1.7351 4.1851 1.1617 4.1851 0.707445 4.02127 0.439361 3.73084 0.260638 3.52978 0.18617 3.30637 0.171276 2.91914L0.796806 2.91914C0.848934 3.39574 1.13191 3.61169 1.71276 3.61169 2.27872 3.61169 2.58404 3.40318 2.58404 3.03084L2.58404 2.86701C2.57659 2.59893 2.44255 2.50212 1.93617 2.4351 1.05744 2.3234 0.923402 2.29361 0.685105 2.1968 0.23085 2.00319 0 1.66063 0 1.15425 0 0.446807 0.491488 0 1.28085 0 1.77234 0 2.16702 0.171276 2.60638 0.573403 2.65106 0.171276 2.84467 0 3.2468 0 3.38084 0 3.46276 0.0148936 3.67127 0.0670211L3.67127 0.536169M2.58404 1.4C2.58404 1.19149 2.52446 1.06489 2.33829 0.893615 2.0851 0.662764 1.77978 0.543616 1.41489 0.543616 0.930849 0.543616 0.647871 0.774466 0.647871 1.16915 0.647871 1.57872 0.915955 1.78723 1.58617 1.88404 2.24893 1.9734 2.37553 2.00319 2.58404 2.09999L2.58404 1.4Z" transform="matrix(1.00052 0 0 -1 529.276 297.012)"/></g><g><path d="M1.78723 4.07339 1.14681 4.07339 1.14681 5.14573 0.528722 5.14573 0.528722 4.07339 0 4.07339 0 3.56701 0.528722 3.56701 0.528722 0.618084C0.528722 0.215957 0.796807 0 1.28085 0 1.44468 0 1.57872 0.0148936 1.78723 0.0521275L1.78723 0.573403C1.69787 0.551062 1.61595 0.543616 1.48936 0.543616 1.22127 0.543616 1.14681 0.618084 1.14681 0.893615L1.14681 3.56701 1.78723 3.56701 1.78723 4.07339Z" transform="matrix(1.00052 0 0 -1 533.21 297.012)"/></g><g><path d="M3.27659 2.76276C3.2468 3.14255 3.16489 3.38829 3.01595 3.60425 2.74787 3.96914 2.27872 4.1851 1.7351 4.1851 0.677658 4.1851 0 3.35106 0 2.05531 0 0.796807 0.670211 0 1.72766 0 2.6585 0 3.2468 0.558509 3.32127 1.5117L2.69574 1.5117C2.59148 0.886168 2.27127 0.573403 1.74255 0.573403 1.05744 0.573403 0.647871 1.13191 0.647871 2.05531 0.647871 3.03084 1.05 3.61169 1.72766 3.61169 2.24893 3.61169 2.57659 3.30637 2.65106 2.76276L3.27659 2.76276Z" transform="matrix(1.00052 0 0 -1 535.408 297.012)"/></g><g><path d="M0 5.42871 0 0 0.618084 0 0.618084 2.15212C0.618084 2.94893 1.0351 3.4702 1.67553 3.4702 1.88404 3.4702 2.07765 3.41063 2.22659 3.29893 2.40531 3.16489 2.47978 2.97872 2.47978 2.70318L2.47978 0 3.09786 0 3.09786 2.94893C3.09786 3.60425 2.62872 4.01382 1.86914 4.01382 1.31808 4.01382 0.982976 3.84254 0.618084 3.36595L0.618084 5.42871 0 5.42871Z" transform="matrix(1.00052 0 0 -1 539.424 296.84)"/></g><g><path d="M4.46807 0.37234 0 0.37234 0 0 4.46807 0 4.46807 0.37234Z" transform="matrix(1.00052 0 0 -1 542.881 298.151)"/></g><g><path d="M3.67127 0.536169C3.60425 0.521275 3.57446 0.521275 3.53723 0.521275 3.32127 0.521275 3.20212 0.632977 3.20212 0.826594L3.20212 3.1202C3.20212 3.81276 2.69574 4.1851 1.7351 4.1851 1.1617 4.1851 0.707445 4.02127 0.439361 3.73084 0.260638 3.52978 0.18617 3.30637 0.171276 2.91914L0.796806 2.91914C0.848934 3.39574 1.13191 3.61169 1.71276 3.61169 2.27872 3.61169 2.58404 3.40318 2.58404 3.03084L2.58404 2.86701C2.57659 2.59893 2.44255 2.50212 1.93617 2.4351 1.05744 2.3234 0.923402 2.29361 0.685105 2.1968 0.23085 2.00319 0 1.66063 0 1.15425 0 0.446807 0.491488 0 1.28085 0 1.77234 0 2.16702 0.171276 2.60638 0.573403 2.65106 0.171276 2.84467 0 3.2468 0 3.38084 0 3.46276 0.0148936 3.67127 0.0670211L3.67127 0.536169M2.58404 1.4C2.58404 1.19149 2.52446 1.06489 2.33829 0.893615 2.0851 0.662764 1.77978 0.543616 1.41489 0.543616 0.930849 0.543616 0.647871 0.774466 0.647871 1.16915 0.647871 1.57872 0.915955 1.78723 1.58617 1.88404 2.24893 1.9734 2.37553 2.00319 2.58404 2.09999L2.58404 1.4Z" transform="matrix(1.00052 0 0 -1 547.5 297.012)"/></g><g><path d="M2.82978 1.06489C2.83723 0.670211 2.72552 0.506382 2.44999 0.506382 2.33829 0.506382 2.22659 0.543616 2.07765 0.632977L1.20638 1.14681C1.07978 1.22872 0.938295 1.26595 0.804253 1.26595 0.320212 1.26595 0.037234 0.893615 0 0.18617L0.39468 0.18617C0.409573 0.357446 0.424467 0.431914 0.454254 0.506382 0.528722 0.670211 0.647871 0.767019 0.78936 0.767019 0.863828 0.767019 1.0351 0.707445 1.10957 0.662764L1.83936 0.193616C2.03297 0.074468 2.25638 0 2.44255 0 2.92659 0 3.22446 0.364893 3.22446 0.945742L3.22446 1.06489 2.82978 1.06489Z" transform="matrix(1.00052 0 0 -1 551.889 294.845)"/></g><g><path d="M1.3851 7.00743 0 7.00743 0 0 1.3851 0 1.3851 0.536169 0.618083 0.536169 0.618083 6.47126 1.3851 6.47126 1.3851 7.00743Z" transform="matrix(1.00052 0 0 -1 556.158 298.419)"/></g><g><path d="M1.40744 2.65106 1.48936 2.65106 1.76489 2.65106C2.47978 2.65106 2.85957 2.31595 2.85957 1.66808 2.85957 0.990423 2.44999 0.58085 1.77234 0.58085 1.05 0.58085 0.699998 0.945742 0.655317 1.7351L0 1.7351C0.0297872 1.30319 0.104255 1.02021 0.23085 0.781913 0.506382 0.260638 1.02021 0 1.74255 0 2.82978 0 3.52978 0.655317 3.52978 1.67553 3.52978 2.36063 3.26914 2.73297 2.63616 2.95638 3.12765 3.15744 3.3734 3.52978 3.3734 4.07339 3.3734 4.9968 2.77021 5.55531 1.76489 5.55531 0.699998 5.55531 0.134042 4.95956 0.111702 3.8202L0.767019 3.8202C0.774466 4.14786 0.804253 4.33403 0.886168 4.49786 1.0351 4.80318 1.36276 4.9819 1.77234 4.9819 2.35319 4.9819 2.70318 4.6319 2.70318 4.05105 2.70318 3.67127 2.56914 3.44042 2.27872 3.31382 2.09999 3.23935 1.8617 3.20957 1.40744 3.20212L1.40744 2.65106Z" transform="matrix(1.00052 0 0 -1 557.991 297.012)"/></g><g><path d="M0.774466 0.774466 0 0.774466 0 0 0.774466 0 0.774466 0.774466Z" transform="matrix(1.00052 0 0 -1 562.543 296.84)"/></g><g><path d="M0.774466 0.774466 0 0.774466 0 0 0.774466 0 0.774466 0.774466Z" transform="matrix(1.00052 0 0 -1 564.614 296.84)"/></g><g><path d="M1.72766 5.55531C1.23617 5.55531 0.78936 5.3319 0.513829 4.96701 0.171276 4.49041 0 3.77552 0 2.77765 0 0.960636 0.595743 0 1.72766 0 2.84467 0 3.45531 0.960636 3.45531 2.73297 3.45531 3.77552 3.29148 4.47552 2.94148 4.96701 2.66595 5.33935 2.22659 5.55531 1.72766 5.55531M1.72766 4.97446C2.4351 4.97446 2.7851 4.25212 2.7851 2.79255 2.7851 1.25851 2.44255 0.543616 1.71276 0.543616 1.02021 0.543616 0.670211 1.28829 0.670211 2.77021 0.670211 4.25212 1.02021 4.97446 1.72766 4.97446Z" transform="matrix(1.00052 0 0 -1 566.358 297.012)"/></g><g><path d="M0 0 1.3851 0 1.3851 7.00743 0 7.00743 0 6.47126 0.767019 6.47126 0.767019 0.536169 0 0.536169 0 0Z" transform="matrix(1.00052 0 0 -1 570.351 298.419)"/></g><path d="M37.2339 37.2339 43.4396 37.2339" stroke="#06476F" stroke-width="1.8617" fill="none" transform="matrix(1.00052 0 0 1 468.946 269.836)"/><g><path d="M1.43971 4.62942C1.03014 4.62942 0.6578 4.44325 0.42819 4.13917 0.14273 3.74201 0 3.14627 0 2.31471 0 0.80053 0.496453 0 1.43971 0 2.37056 0 2.87943 0.80053 2.87943 2.27748 2.87943 3.14627 2.7429 3.7296 2.45123 4.13917 2.22163 4.44946 1.85549 4.62942 1.43971 4.62942M1.43971 4.14538C2.02925 4.14538 2.32092 3.54343 2.32092 2.32712 2.32092 1.04876 2.03546 0.453013 1.4273 0.453013 0.850175 0.453013 0.558509 1.07358 0.558509 2.3085 0.558509 3.54343 0.850175 4.14538 1.43971 4.14538Z" fill="#06476F" transform="matrix(1.00052 0 0 -1 507.981 305.308)"/></g><path d="M37.2339 49.6453 43.4396 49.6453" stroke="#06476F" stroke-width="1.8617" fill="none" transform="matrix(1.00052 0 0 1 468.946 269.836)"/><g><path d="M0.974288 3.19591 0.974288 0 1.52039 0 1.52039 4.48669 1.16046 4.48669C0.968083 3.79786 0.843969 3.70478 0 3.59308L0 3.19591 0.974288 3.19591Z" fill="#06476F" transform="matrix(1.00052 0 0 -1 508.347 317.576)"/></g><path d="M57.7126 27.9255C57.7126 26.8972 56.8791 26.0638 55.8509 26.0638 54.8227 26.0638 53.9892 26.8972 53.9892 27.9255 53.9892 28.9537 54.8227 29.7872 55.8509 29.7872 56.8791 29.7872 57.7126 28.9537 57.7126 27.9255" stroke="#06476F" stroke-width="1.8617" fill="none" transform="matrix(1.00052 0 0 1 468.946 269.836)"/><path d="M55.8509 24.8226 55.8509 26.0638" stroke="#06476F" stroke-width="1.8617" fill="none" transform="matrix(1.00052 0 0 1 468.946 269.836)"/><path d="M74.4679 43.4396 68.2622 43.4396" stroke="#06476F" stroke-width="1.8617" fill="none" transform="matrix(1.00052 0 0 1 468.946 269.836)"/><path d="M178.723 29.7872 203.546 39.0956 203.546 57.7126 178.723 67.0211Z" transform="matrix(1.00052 0 0 1 468.946 269.836)"/><path d="M176.241 27.3049 201.063 36.6134 201.063 55.2304 176.241 64.5388Z" fill="#477777" transform="matrix(1.00052 0 0 1 468.946 269.836)"/><path d="M176.241 27.3049 201.063 36.6134 201.063 55.2304 176.241 64.5388Z" stroke="#2D2D2D" stroke-width="0.620566" fill="none" transform="matrix(1.00052 0 0 1 468.946 269.836)"/><path d="M173.758 24.8226 198.581 34.1311 198.581 52.7481 173.758 62.0566Z" fill="#73ACAC" transform="matrix(1.00052 0 0 1 468.946 269.836)"/><path d="M173.758 24.8226 198.581 34.1311 198.581 52.7481 173.758 62.0566Z" stroke="#2D2D2D" stroke-width="0.620566" fill="none" transform="matrix(1.00052 0 0 1 468.946 269.836)"/><g><path d="M0.62553 5.42871 0 5.42871 0 0 0.62553 0 0.62553 5.42871Z" transform="matrix(1.00052 0 0 -1 658.202 296.84)"/></g><g><path d="M3.67127 0.536169C3.60425 0.521275 3.57446 0.521275 3.53723 0.521275 3.32127 0.521275 3.20212 0.632977 3.20212 0.826594L3.20212 3.1202C3.20212 3.81276 2.69574 4.1851 1.7351 4.1851 1.1617 4.1851 0.707445 4.02127 0.439361 3.73084 0.260638 3.52978 0.18617 3.30637 0.171276 2.91914L0.796806 2.91914C0.848934 3.39574 1.13191 3.61169 1.71276 3.61169 2.27872 3.61169 2.58404 3.40318 2.58404 3.03084L2.58404 2.86701C2.57659 2.59893 2.44255 2.50212 1.93617 2.4351 1.05744 2.3234 0.923402 2.29361 0.685105 2.1968 0.23085 2.00319 0 1.66063 0 1.15425 0 0.446807 0.491488 0 1.28085 0 1.77234 0 2.16702 0.171276 2.60638 0.573403 2.65106 0.171276 2.84467 0 3.2468 0 3.38084 0 3.46276 0.0148936 3.67127 0.0670211L3.67127 0.536169M2.58404 1.4C2.58404 1.19149 2.52446 1.06489 2.33829 0.893615 2.0851 0.662764 1.77978 0.543616 1.41489 0.543616 0.930849 0.543616 0.647871 0.774466 0.647871 1.16915 0.647871 1.57872 0.915955 1.78723 1.58617 1.88404 2.24893 1.9734 2.37553 2.00319 2.58404 2.09999L2.58404 1.4Z" transform="matrix(1.00052 0 0 -1 659.662 297.012)"/></g><g><path d="M1.78723 4.07339 1.14681 4.07339 1.14681 5.14573 0.528722 5.14573 0.528722 4.07339 0 4.07339 0 3.56701 0.528722 3.56701 0.528722 0.618084C0.528722 0.215957 0.796807 0 1.28085 0 1.44468 0 1.57872 0.0148936 1.78723 0.0521275L1.78723 0.573403C1.69787 0.551062 1.61595 0.543616 1.48936 0.543616 1.22127 0.543616 1.14681 0.618084 1.14681 0.893615L1.14681 3.56701 1.78723 3.56701 1.78723 4.07339Z" transform="matrix(1.00052 0 0 -1 663.596 297.012)"/></g><g><path d="M3.27659 2.76276C3.2468 3.14255 3.16489 3.38829 3.01595 3.60425 2.74787 3.96914 2.27872 4.1851 1.7351 4.1851 0.677658 4.1851 0 3.35106 0 2.05531 0 0.796807 0.670211 0 1.72766 0 2.6585 0 3.2468 0.558509 3.32127 1.5117L2.69574 1.5117C2.59148 0.886168 2.27127 0.573403 1.74255 0.573403 1.05744 0.573403 0.647871 1.13191 0.647871 2.05531 0.647871 3.03084 1.05 3.61169 1.72766 3.61169 2.24893 3.61169 2.57659 3.30637 2.65106 2.76276L3.27659 2.76276Z" transform="matrix(1.00052 0 0 -1 665.794 297.012)"/></g><g><path d="M0 5.42871 0 0 0.618084 0 0.618084 2.15212C0.618084 2.94893 1.0351 3.4702 1.67553 3.4702 1.88404 3.4702 2.07765 3.41063 2.22659 3.29893 2.40531 3.16489 2.47978 2.97872 2.47978 2.70318L2.47978 0 3.09786 0 3.09786 2.94893C3.09786 3.60425 2.62872 4.01382 1.86914 4.01382 1.31808 4.01382 0.982976 3.84254 0.618084 3.36595L0.618084 5.42871 0 5.42871Z" transform="matrix(1.00052 0 0 -1 669.81 296.84)"/></g><g><path d="M4.46807 0.37234 0 0.37234 0 0 4.46807 0 4.46807 0.37234Z" transform="matrix(1.00052 0 0 -1 673.267 298.151)"/></g><g><path d="M3.67127 0.536169C3.60425 0.521275 3.57446 0.521275 3.53723 0.521275 3.32127 0.521275 3.20212 0.632977 3.20212 0.826594L3.20212 3.1202C3.20212 3.81276 2.69574 4.1851 1.7351 4.1851 1.1617 4.1851 0.707445 4.02127 0.439361 3.73084 0.260638 3.52978 0.18617 3.30637 0.171276 2.91914L0.796806 2.91914C0.848934 3.39574 1.13191 3.61169 1.71276 3.61169 2.27872 3.61169 2.58404 3.40318 2.58404 3.03084L2.58404 2.86701C2.57659 2.59893 2.44255 2.50212 1.93617 2.4351 1.05744 2.3234 0.923402 2.29361 0.685105 2.1968 0.23085 2.00319 0 1.66063 0 1.15425 0 0.446807 0.491488 0 1.28085 0 1.77234 0 2.16702 0.171276 2.60638 0.573403 2.65106 0.171276 2.84467 0 3.2468 0 3.38084 0 3.46276 0.0148936 3.67127 0.0670211L3.67127 0.536169M2.58404 1.4C2.58404 1.19149 2.52446 1.06489 2.33829 0.893615 2.0851 0.662764 1.77978 0.543616 1.41489 0.543616 0.930849 0.543616 0.647871 0.774466 0.647871 1.16915 0.647871 1.57872 0.915955 1.78723 1.58617 1.88404 2.24893 1.9734 2.37553 2.00319 2.58404 2.09999L2.58404 1.4Z" transform="matrix(1.00052 0 0 -1 677.886 297.012)"/></g><g><path d="M2.82978 1.06489C2.83723 0.670211 2.72552 0.506382 2.44999 0.506382 2.33829 0.506382 2.22659 0.543616 2.07765 0.632977L1.20638 1.14681C1.07978 1.22872 0.938295 1.26595 0.804253 1.26595 0.320212 1.26595 0.037234 0.893615 0 0.18617L0.39468 0.18617C0.409573 0.357446 0.424467 0.431914 0.454254 0.506382 0.528722 0.670211 0.647871 0.767019 0.78936 0.767019 0.863828 0.767019 1.0351 0.707445 1.10957 0.662764L1.83936 0.193616C2.03297 0.074468 2.25638 0 2.44255 0 2.92659 0 3.22446 0.364893 3.22446 0.945742L3.22446 1.06489 2.82978 1.06489Z" transform="matrix(1.00052 0 0 -1 682.275 294.845)"/></g><g><path d="M1.3851 7.00743 0 7.00743 0 0 1.3851 0 1.3851 0.536169 0.618083 0.536169 0.618083 6.47126 1.3851 6.47126 1.3851 7.00743Z" transform="matrix(1.00052 0 0 -1 686.544 298.419)"/></g><g><path d="M3.52978 5.27977 0 5.27977 0 4.6319 2.85212 4.6319C1.59361 2.83723 1.07978 1.7351 0.685105 0L1.3851 0C1.67553 1.69042 2.33829 3.14255 3.52978 4.72871L3.52978 5.27977Z" transform="matrix(1.00052 0 0 -1 688.481 296.84)"/></g><g><path d="M0.774466 0.774466 0 0.774466 0 0 0.774466 0 0.774466 0.774466Z" transform="matrix(1.00052 0 0 -1 692.929 296.84)"/></g><g><path d="M0.774466 0.774466 0 0.774466 0 0 0.774466 0 0.774466 0.774466Z" transform="matrix(1.00052 0 0 -1 695 296.84)"/></g><g><path d="M2.22659 1.30319 2.22659 0 2.88191 0 2.88191 1.30319 3.66382 1.30319 3.66382 1.89148 2.88191 1.89148 2.88191 5.38403 2.39787 5.38403 0 1.99574 0 1.30319 2.22659 1.30319M2.22659 1.89148 0.573403 1.89148 2.22659 4.26701 2.22659 1.89148Z" transform="matrix(1.00052 0 0 -1 696.632 296.84)"/></g><g><path d="M0 0 1.3851 0 1.3851 7.00743 0 7.00743 0 6.47126 0.767019 6.47126 0.767019 0.536169 0 0.536169 0 0Z" transform="matrix(1.00052 0 0 -1 700.737 298.419)"/></g><path d="M167.553 37.2339 173.758 37.2339" stroke="#06476F" stroke-width="1.8617" fill="none" transform="matrix(1.00052 0 0 1 468.946 269.836)"/><g><path d="M1.43971 4.62942C1.03014 4.62942 0.6578 4.44325 0.42819 4.13917 0.14273 3.74201 0 3.14627 0 2.31471 0 0.80053 0.496453 0 1.43971 0 2.37056 0 2.87943 0.80053 2.87943 2.27748 2.87943 3.14627 2.7429 3.7296 2.45123 4.13917 2.22163 4.44946 1.85549 4.62942 1.43971 4.62942M1.43971 4.14538C2.02925 4.14538 2.32092 3.54343 2.32092 2.32712 2.32092 1.04876 2.03546 0.453013 1.4273 0.453013 0.850175 0.453013 0.558509 1.07358 0.558509 2.3085 0.558509 3.54343 0.850175 4.14538 1.43971 4.14538Z" fill="#06476F" transform="matrix(1.00052 0 0 -1 638.367 305.308)"/></g><path d="M167.553 49.6453 173.758 49.6453" stroke="#06476F" stroke-width="1.8617" fill="none" transform="matrix(1.00052 0 0 1 468.946 269.836)"/><g><path d="M0.974288 3.19591 0.974288 0 1.52039 0 1.52039 4.48669 1.16046 4.48669C0.968083 3.79786 0.843969 3.70478 0 3.59308L0 3.19591 0.974288 3.19591Z" fill="#06476F" transform="matrix(1.00052 0 0 -1 638.733 317.576)"/></g><g><path d="M2.22659 1.30319 2.22659 0 2.88191 0 2.88191 1.30319 3.66382 1.30319 3.66382 1.89148 2.88191 1.89148 2.88191 5.38403 2.39787 5.38403 0 1.99574 0 1.30319 2.22659 1.30319M2.22659 1.89148 0.573403 1.89148 2.22659 4.26701 2.22659 1.89148Z" fill="#06476F" transform="matrix(1.00052 0 0 -1 622.091 317.319)"/></g><g><path d="M0 1.82446 0 0.99787 0.201063 0 0.498935 0 0.699998 0.99787 0.699998 1.82446 0 1.82446Z" fill="#06476F" transform="matrix(1.00052 0 0 -1 626.383 313.864)"/></g><g><path d="M0 5.42871 0 0 0.618084 0 0.618084 2.15212C0.618084 2.94893 1.0351 3.4702 1.67553 3.4702 1.88404 3.4702 2.07765 3.41063 2.22659 3.29893 2.40531 3.16489 2.47978 2.97872 2.47978 2.70318L2.47978 0 3.09786 0 3.09786 2.94893C3.09786 3.60425 2.62872 4.01382 1.86914 4.01382 1.31808 4.01382 0.982976 3.84254 0.618084 3.36595L0.618084 5.42871 0 5.42871Z" fill="#06476F" transform="matrix(1.00052 0 0 -1 627.97 317.319)"/></g><g><path d="M1.72766 5.55531C1.23617 5.55531 0.78936 5.3319 0.513829 4.96701 0.171276 4.49041 0 3.77552 0 2.77765 0 0.960636 0.595743 0 1.72766 0 2.84467 0 3.45531 0.960636 3.45531 2.73297 3.45531 3.77552 3.29148 4.47552 2.94148 4.96701 2.66595 5.33935 2.22659 5.55531 1.72766 5.55531M1.72766 4.97446C2.4351 4.97446 2.7851 4.25212 2.7851 2.79255 2.7851 1.25851 2.44255 0.543616 1.71276 0.543616 1.02021 0.543616 0.670211 1.28829 0.670211 2.77021 0.670211 4.25212 1.02021 4.97446 1.72766 4.97446Z" fill="#06476F" transform="matrix(1.00052 0 0 -1 631.911 317.49)"/></g><path d="M186.17 24.8226 186.17 29.7872" stroke="#06476F" stroke-width="1.8617" fill="none" transform="matrix(1.00052 0 0 1 468.946 269.836)"/><path d="M204.787 43.4396 198.581 43.4396" stroke="#06476F" stroke-width="1.8617" fill="none" transform="matrix(1.00052 0 0 1 468.946 269.836)"/><path d="M366.134 37.2339 366.134 32.89 374.822 32.89 379.166 37.2339 374.822 41.5779 366.134 41.5779Z" stroke="#0000FF" stroke-width="1.8617" fill="none" transform="matrix(1.00052 0 0 1 468.946 269.836)"/><g><path d="M3.49254 0 3.49254 5.52552 2.94148 5.52552 2.94148 5.00424C2.65106 5.41382 2.2117 5.63722 1.69787 5.63722 0.670211 5.63722 0 4.79573 0 3.49999 0 2.23404 0.632977 1.45212 1.66808 1.45212 2.2117 1.45212 2.58404 1.64574 2.87446 2.07021L2.87446 0 3.49254 0M1.78723 5.05637C2.44999 5.05637 2.87446 4.46807 2.87446 3.52233 2.87446 2.62872 2.44255 2.03297 1.78723 2.03297 1.10212 2.03297 0.647871 2.63616 0.647871 3.54467 0.647871 4.45318 1.10212 5.05637 1.78723 5.05637Z" transform="matrix(1.00052 0 0 -1 853.468 311.367)"/></g><g><path d="M4.46807 0.37234 0 0.37234 0 0 4.46807 0 4.46807 0.37234Z" transform="matrix(1.00052 0 0 -1 857.253 311.054)"/></g><g><path d="M3.67127 0.536169C3.60425 0.521275 3.57446 0.521275 3.53723 0.521275 3.32127 0.521275 3.20212 0.632977 3.20212 0.826594L3.20212 3.1202C3.20212 3.81276 2.69574 4.1851 1.7351 4.1851 1.1617 4.1851 0.707445 4.02127 0.439361 3.73084 0.260638 3.52978 0.18617 3.30637 0.171276 2.91914L0.796806 2.91914C0.848934 3.39574 1.13191 3.61169 1.71276 3.61169 2.27872 3.61169 2.58404 3.40318 2.58404 3.03084L2.58404 2.86701C2.57659 2.59893 2.44255 2.50212 1.93617 2.4351 1.05744 2.3234 0.923402 2.29361 0.685105 2.1968 0.23085 2.00319 0 1.66063 0 1.15425 0 0.446807 0.491488 0 1.28085 0 1.77234 0 2.16702 0.171276 2.60638 0.573403 2.65106 0.171276 2.84467 0 3.2468 0 3.38084 0 3.46276 0.0148936 3.67127 0.0670211L3.67127 0.536169M2.58404 1.4C2.58404 1.19149 2.52446 1.06489 2.33829 0.893615 2.0851 0.662764 1.77978 0.543616 1.41489 0.543616 0.930849 0.543616 0.647871 0.774466 0.647871 1.16915 0.647871 1.57872 0.915955 1.78723 1.58617 1.88404 2.24893 1.9734 2.37553 2.00319 2.58404 2.09999L2.58404 1.4Z" transform="matrix(1.00052 0 0 -1 861.872 309.915)"/></g><g><path d="M1.3851 7.00743 0 7.00743 0 0 1.3851 0 1.3851 0.536169 0.618083 0.536169 0.618083 6.47126 1.3851 6.47126 1.3851 7.00743Z" transform="matrix(1.00052 0 0 -1 866.179 311.322)"/></g><g><path d="M1.40744 2.65106 1.48936 2.65106 1.76489 2.65106C2.47978 2.65106 2.85957 2.31595 2.85957 1.66808 2.85957 0.990423 2.44999 0.58085 1.77234 0.58085 1.05 0.58085 0.699998 0.945742 0.655317 1.7351L0 1.7351C0.0297872 1.30319 0.104255 1.02021 0.23085 0.781913 0.506382 0.260638 1.02021 0 1.74255 0 2.82978 0 3.52978 0.655317 3.52978 1.67553 3.52978 2.36063 3.26914 2.73297 2.63616 2.95638 3.12765 3.15744 3.3734 3.52978 3.3734 4.07339 3.3734 4.9968 2.77021 5.55531 1.76489 5.55531 0.699998 5.55531 0.134042 4.95956 0.111702 3.8202L0.767019 3.8202C0.774466 4.14786 0.804253 4.33403 0.886168 4.49786 1.0351 4.80318 1.36276 4.9819 1.77234 4.9819 2.35319 4.9819 2.70318 4.6319 2.70318 4.05105 2.70318 3.67127 2.56914 3.44042 2.27872 3.31382 2.09999 3.23935 1.8617 3.20957 1.40744 3.20212L1.40744 2.65106Z" transform="matrix(1.00052 0 0 -1 868.012 309.915)"/></g><g><path d="M0.774466 0.774466 0 0.774466 0 0 0.774466 0 0.774466 0.774466Z" transform="matrix(1.00052 0 0 -1 872.564 309.743)"/></g><g><path d="M0.774466 0.774466 0 0.774466 0 0 0.774466 0 0.774466 0.774466Z" transform="matrix(1.00052 0 0 -1 874.635 309.743)"/></g><g><path d="M1.72766 5.55531C1.23617 5.55531 0.78936 5.3319 0.513829 4.96701 0.171276 4.49041 0 3.77552 0 2.77765 0 0.960636 0.595743 0 1.72766 0 2.84467 0 3.45531 0.960636 3.45531 2.73297 3.45531 3.77552 3.29148 4.47552 2.94148 4.96701 2.66595 5.33935 2.22659 5.55531 1.72766 5.55531M1.72766 4.97446C2.4351 4.97446 2.7851 4.25212 2.7851 2.79255 2.7851 1.25851 2.44255 0.543616 1.71276 0.543616 1.02021 0.543616 0.670211 1.28829 0.670211 2.77021 0.670211 4.25212 1.02021 4.97446 1.72766 4.97446Z" transform="matrix(1.00052 0 0 -1 876.379 309.915)"/></g><g><path d="M0 0 1.3851 0 1.3851 7.00743 0 7.00743 0 6.47126 0.767019 6.47126 0.767019 0.536169 0 0.536169 0 0Z" transform="matrix(1.00052 0 0 -1 880.372 311.322)"/></g><path d="M0 86.8792-4.34396 91.2232-13.0319 91.2232-13.0319 82.5352-4.34396 82.5352Z" stroke="#0000FF" stroke-width="0.620566" fill="none" transform="matrix(1.00052 0 0 1 468.946 269.836)"/><g><path d="M3.27659 2.76276C3.2468 3.14255 3.16489 3.38829 3.01595 3.60425 2.74787 3.96914 2.27872 4.1851 1.7351 4.1851 0.677658 4.1851 0 3.35106 0 2.05531 0 0.796807 0.670211 0 1.72766 0 2.6585 0 3.2468 0.558509 3.32127 1.5117L2.69574 1.5117C2.59148 0.886168 2.27127 0.573403 1.74255 0.573403 1.05744 0.573403 0.647871 1.13191 0.647871 2.05531 0.647871 3.03084 1.05 3.61169 1.72766 3.61169 2.24893 3.61169 2.57659 3.30637 2.65106 2.76276L3.27659 2.76276Z" transform="matrix(1.00052 0 0 -1 444.55 359.56)"/></g><g><path d="M0.62553 5.42871 0 5.42871 0 0 0.62553 0 0.62553 5.42871Z" transform="matrix(1.00052 0 0 -1 448.551 359.389)"/></g><g><path d="M0.618084 5.42871 0 5.42871 0 0 0.618084 0 0.618084 1.51915 1.22127 2.11489 2.53936 0 3.30637 0 1.71276 2.55425 3.06808 3.90212 2.27127 3.90212 0.618084 2.24893 0.618084 5.42871Z" transform="matrix(1.00052 0 0 -1 450.13 359.389)"/></g><path d="M0 49.6453-4.34396 53.9892-13.0319 53.9892-13.0319 45.3013-4.34396 45.3013Z" stroke="#0000FF" stroke-width="1.8617" fill="none" transform="matrix(1.00052 0 0 1 468.946 269.836)"/><g><path d="M3.49254 5.59999 2.87446 5.59999 2.87446 3.58191C2.61382 3.97659 2.1968 4.1851 1.67553 4.1851 0.662764 4.1851 0 3.3734 0 2.12978 0 0.8117 0.640424 0 1.69787 0 2.23404 0 2.60638 0.201063 2.94148 0.685105L2.94148 0.171276 3.49254 0.171276 3.49254 5.59999M1.77978 3.60425C2.44999 3.60425 2.87446 3.01595 2.87446 2.07765 2.87446 1.17659 2.44255 0.58085 1.78723 0.58085 1.10212 0.58085 0.647871 1.18404 0.647871 2.09255 0.647871 3.00106 1.10212 3.60425 1.77978 3.60425Z" transform="matrix(1.00052 0 0 -1 402.252 322.326)"/></g><g><path d="M3.67127 0.536169C3.60425 0.521275 3.57446 0.521275 3.53723 0.521275 3.32127 0.521275 3.20212 0.632977 3.20212 0.826594L3.20212 3.1202C3.20212 3.81276 2.69574 4.1851 1.7351 4.1851 1.1617 4.1851 0.707445 4.02127 0.439361 3.73084 0.260638 3.52978 0.18617 3.30637 0.171276 2.91914L0.796806 2.91914C0.848934 3.39574 1.13191 3.61169 1.71276 3.61169 2.27872 3.61169 2.58404 3.40318 2.58404 3.03084L2.58404 2.86701C2.57659 2.59893 2.44255 2.50212 1.93617 2.4351 1.05744 2.3234 0.923402 2.29361 0.685105 2.1968 0.23085 2.00319 0 1.66063 0 1.15425 0 0.446807 0.491488 0 1.28085 0 1.77234 0 2.16702 0.171276 2.60638 0.573403 2.65106 0.171276 2.84467 0 3.2468 0 3.38084 0 3.46276 0.0148936 3.67127 0.0670211L3.67127 0.536169M2.58404 1.4C2.58404 1.19149 2.52446 1.06489 2.33829 0.893615 2.0851 0.662764 1.77978 0.543616 1.41489 0.543616 0.930849 0.543616 0.647871 0.774466 0.647871 1.16915 0.647871 1.57872 0.915955 1.78723 1.58617 1.88404 2.24893 1.9734 2.37553 2.00319 2.58404 2.09999L2.58404 1.4Z" transform="matrix(1.00052 0 0 -1 406.514 322.326)"/></g><g><path d="M1.78723 4.07339 1.14681 4.07339 1.14681 5.14573 0.528722 5.14573 0.528722 4.07339 0 4.07339 0 3.56701 0.528722 3.56701 0.528722 0.618084C0.528722 0.215957 0.796807 0 1.28085 0 1.44468 0 1.57872 0.0148936 1.78723 0.0521275L1.78723 0.573403C1.69787 0.551062 1.61595 0.543616 1.48936 0.543616 1.22127 0.543616 1.14681 0.618084 1.14681 0.893615L1.14681 3.56701 1.78723 3.56701 1.78723 4.07339Z" transform="matrix(1.00052 0 0 -1 410.448 322.326)"/></g><g><path d="M3.67127 0.536169C3.60425 0.521275 3.57446 0.521275 3.53723 0.521275 3.32127 0.521275 3.20212 0.632977 3.20212 0.826594L3.20212 3.1202C3.20212 3.81276 2.69574 4.1851 1.7351 4.1851 1.1617 4.1851 0.707445 4.02127 0.439361 3.73084 0.260638 3.52978 0.18617 3.30637 0.171276 2.91914L0.796806 2.91914C0.848934 3.39574 1.13191 3.61169 1.71276 3.61169 2.27872 3.61169 2.58404 3.40318 2.58404 3.03084L2.58404 2.86701C2.57659 2.59893 2.44255 2.50212 1.93617 2.4351 1.05744 2.3234 0.923402 2.29361 0.685105 2.1968 0.23085 2.00319 0 1.66063 0 1.15425 0 0.446807 0.491488 0 1.28085 0 1.77234 0 2.16702 0.171276 2.60638 0.573403 2.65106 0.171276 2.84467 0 3.2468 0 3.38084 0 3.46276 0.0148936 3.67127 0.0670211L3.67127 0.536169M2.58404 1.4C2.58404 1.19149 2.52446 1.06489 2.33829 0.893615 2.0851 0.662764 1.77978 0.543616 1.41489 0.543616 0.930849 0.543616 0.647871 0.774466 0.647871 1.16915 0.647871 1.57872 0.915955 1.78723 1.58617 1.88404 2.24893 1.9734 2.37553 2.00319 2.58404 2.09999L2.58404 1.4Z" transform="matrix(1.00052 0 0 -1 412.728 322.326)"/></g><g><path d="M4.46807 0.37234 0 0.37234 0 0 4.46807 0 4.46807 0.37234Z" transform="matrix(1.00052 0 0 -1 416.394 323.465)"/></g><g><path d="M0.62553 3.90212 0.0074468 3.90212 0.0074468 0 0.62553 0 0.62553 3.90212M0.62553 5.42871 0 5.42871 0 4.6468 0.62553 4.6468 0.62553 5.42871Z" transform="matrix(1.00052 0 0 -1 421.192 322.155)"/></g><g><path d="M0 3.90212 0 0 0.62553 0 0.62553 2.15212C0.62553 2.94893 1.04255 3.4702 1.68297 3.4702 2.17446 3.4702 2.48723 3.17233 2.48723 2.70318L2.48723 0 3.10531 0 3.10531 2.94893C3.10531 3.5968 2.62127 4.01382 1.86914 4.01382 1.28829 4.01382 0.915955 3.79042 0.573403 3.2468L0.573403 3.90212 0 3.90212Z" transform="matrix(1.00052 0 0 -1 422.876 322.155)"/></g><g><path d="M0 0 0.62553 0 0.62553 2.03297C0.953189 1.63085 1.31808 1.45212 1.82446 1.45212 2.83723 1.45212 3.49254 2.26382 3.49254 3.50744 3.49254 4.81807 2.85212 5.63722 1.81702 5.63722 1.28829 5.63722 0.863828 5.39892 0.573403 4.93722L0.573403 5.52552 0 5.52552 0 0M1.71276 5.05637C2.39787 5.05637 2.84467 4.45318 2.84467 3.52233 2.84467 2.63616 2.39042 2.03297 1.71276 2.03297 1.05 2.03297 0.62553 2.62872 0.62553 3.54467 0.62553 4.46063 1.05 5.05637 1.71276 5.05637Z" transform="matrix(1.00052 0 0 -1 426.899 323.778)"/></g><g><path d="M3.10531 0.171276 3.10531 4.07339 2.48723 4.07339 2.48723 1.8617C2.48723 1.06489 2.07021 0.543616 1.42234 0.543616 0.930849 0.543616 0.618083 0.841487 0.618083 1.31063L0.618083 4.07339 0 4.07339 0 1.06489C0 0.41702 0.484041 0 1.24361 0 1.81702 0 2.18191 0.201063 2.5468 0.714892L2.5468 0.171276 3.10531 0.171276Z" transform="matrix(1.00052 0 0 -1 431.124 322.326)"/></g><g><path d="M1.78723 4.07339 1.14681 4.07339 1.14681 5.14573 0.528722 5.14573 0.528722 4.07339 0 4.07339 0 3.56701 0.528722 3.56701 0.528722 0.618084C0.528722 0.215957 0.796807 0 1.28085 0 1.44468 0 1.57872 0.0148936 1.78723 0.0521275L1.78723 0.573403C1.69787 0.551062 1.61595 0.543616 1.48936 0.543616 1.22127 0.543616 1.14681 0.618084 1.14681 0.893615L1.14681 3.56701 1.78723 3.56701 1.78723 4.07339Z" transform="matrix(1.00052 0 0 -1 434.886 322.326)"/></g><g><path d="M1.3851 7.00743 0 7.00743 0 0 1.3851 0 1.3851 0.536169 0.618083 0.536169 0.618083 6.47126 1.3851 6.47126 1.3851 7.00743Z" transform="matrix(1.00052 0 0 -1 437.33 323.733)"/></g><g><path d="M1.40744 2.65106 1.48936 2.65106 1.76489 2.65106C2.47978 2.65106 2.85957 2.31595 2.85957 1.66808 2.85957 0.990423 2.44999 0.58085 1.77234 0.58085 1.05 0.58085 0.699998 0.945742 0.655317 1.7351L0 1.7351C0.0297872 1.30319 0.104255 1.02021 0.23085 0.781913 0.506382 0.260638 1.02021 0 1.74255 0 2.82978 0 3.52978 0.655317 3.52978 1.67553 3.52978 2.36063 3.26914 2.73297 2.63616 2.95638 3.12765 3.15744 3.3734 3.52978 3.3734 4.07339 3.3734 4.9968 2.77021 5.55531 1.76489 5.55531 0.699998 5.55531 0.134042 4.95956 0.111702 3.8202L0.767019 3.8202C0.774466 4.14786 0.804253 4.33403 0.886168 4.49786 1.0351 4.80318 1.36276 4.9819 1.77234 4.9819 2.35319 4.9819 2.70318 4.6319 2.70318 4.05105 2.70318 3.67127 2.56914 3.44042 2.27872 3.31382 2.09999 3.23935 1.8617 3.20957 1.40744 3.20212L1.40744 2.65106Z" transform="matrix(1.00052 0 0 -1 439.163 322.326)"/></g><g><path d="M0.774466 0.774466 0 0.774466 0 0 0.774466 0 0.774466 0.774466Z" transform="matrix(1.00052 0 0 -1 443.715 322.155)"/></g><g><path d="M0.774466 0.774466 0 0.774466 0 0 0.774466 0 0.774466 0.774466Z" transform="matrix(1.00052 0 0 -1 445.787 322.155)"/></g><g><path d="M1.72766 5.55531C1.23617 5.55531 0.78936 5.3319 0.513829 4.96701 0.171276 4.49041 0 3.77552 0 2.77765 0 0.960636 0.595743 0 1.72766 0 2.84467 0 3.45531 0.960636 3.45531 2.73297 3.45531 3.77552 3.29148 4.47552 2.94148 4.96701 2.66595 5.33935 2.22659 5.55531 1.72766 5.55531M1.72766 4.97446C2.4351 4.97446 2.7851 4.25212 2.7851 2.79255 2.7851 1.25851 2.44255 0.543616 1.71276 0.543616 1.02021 0.543616 0.670211 1.28829 0.670211 2.77021 0.670211 4.25212 1.02021 4.97446 1.72766 4.97446Z" transform="matrix(1.00052 0 0 -1 447.53 322.326)"/></g><g><path d="M0 0 1.3851 0 1.3851 7.00743 0 7.00743 0 6.47126 0.767019 6.47126 0.767019 0.536169 0 0.536169 0 0Z" transform="matrix(1.00052 0 0 -1 451.524 323.733)"/></g><path d="M0 99.2905-4.34396 103.634-13.0319 103.634-13.0319 94.9466-4.34396 94.9466Z" stroke="#0000FF" stroke-width="0.620566" fill="none" transform="matrix(1.00052 0 0 1 468.946 269.836)"/><g><path d="M0 3.90212 0 0 0.62553 0 0.62553 2.02553C0.632977 2.96382 1.02021 3.38084 1.87659 3.3585L1.87659 3.99148C1.77234 4.00637 1.71276 4.01382 1.63829 4.01382 1.23617 4.01382 0.930849 3.77552 0.573403 3.19467L0.573403 3.90212 0 3.90212Z" transform="matrix(1.00052 0 0 -1 429.09 371.8)"/></g><g><path d="M3.52233 1.91383C3.52233 2.50957 3.47765 2.86701 3.36595 3.15744 3.11276 3.79786 2.51701 4.1851 1.78723 4.1851 0.699998 4.1851 0 3.3585 0 2.07021 0 0.781913 0.670211 0 1.77234 0 2.66595 0 3.28403 0.506382 3.44042 1.35532L2.81489 1.35532C2.64361 0.841487 2.29361 0.573403 1.79468 0.573403 1.4 0.573403 1.06489 0.752126 0.856381 1.07978 0.707445 1.30319 0.655317 1.52659 0.647871 1.91383L3.52233 1.91383M0.662764 2.42021C0.714892 3.14255 1.15425 3.61169 1.77978 3.61169 2.41276 3.61169 2.85212 3.1202 2.85212 2.42021L0.662764 2.42021Z" transform="matrix(1.00052 0 0 -1 431.355 371.971)"/></g><g><path d="M3.0085 2.98616C3.00106 3.75318 2.49467 4.1851 1.59361 4.1851 0.685105 4.1851 0.0968083 3.71595 0.0968083 2.99361 0.0968083 2.38297 0.409573 2.09255 1.33298 1.86914L1.91382 1.72766C2.34574 1.6234 2.51701 1.46702 2.51701 1.19149 2.51701 0.819147 2.15212 0.573403 1.60851 0.573403 1.2734 0.573403 0.990423 0.670211 0.83404 0.83404 0.737232 0.945742 0.692551 1.05744 0.655317 1.33298L0 1.33298C0.0297872 0.431914 0.536169 0 1.55638 0 2.53936 0 3.16489 0.484041 3.16489 1.23617 3.16489 1.81702 2.83723 2.13723 2.06276 2.3234L1.46702 2.46489C0.960636 2.58404 0.744679 2.74787 0.744679 3.0234 0.744679 3.38829 1.06489 3.61169 1.57127 3.61169 2.07021 3.61169 2.33829 3.39574 2.35319 2.98616L3.0085 2.98616Z" transform="matrix(1.00052 0 0 -1 435.453 371.971)"/></g><g><path d="M3.52233 1.91383C3.52233 2.50957 3.47765 2.86701 3.36595 3.15744 3.11276 3.79786 2.51701 4.1851 1.78723 4.1851 0.699998 4.1851 0 3.3585 0 2.07021 0 0.781913 0.670211 0 1.77234 0 2.66595 0 3.28403 0.506382 3.44042 1.35532L2.81489 1.35532C2.64361 0.841487 2.29361 0.573403 1.79468 0.573403 1.4 0.573403 1.06489 0.752126 0.856381 1.07978 0.707445 1.30319 0.655317 1.52659 0.647871 1.91383L3.52233 1.91383M0.662764 2.42021C0.714892 3.14255 1.15425 3.61169 1.77978 3.61169 2.41276 3.61169 2.85212 3.1202 2.85212 2.42021L0.662764 2.42021Z" transform="matrix(1.00052 0 0 -1 439.223 371.971)"/></g><g><path d="M1.78723 4.07339 1.14681 4.07339 1.14681 5.14573 0.528722 5.14573 0.528722 4.07339 0 4.07339 0 3.56701 0.528722 3.56701 0.528722 0.618084C0.528722 0.215957 0.796807 0 1.28085 0 1.44468 0 1.57872 0.0148936 1.78723 0.0521275L1.78723 0.573403C1.69787 0.551062 1.61595 0.543616 1.48936 0.543616 1.22127 0.543616 1.14681 0.618084 1.14681 0.893615L1.14681 3.56701 1.78723 3.56701 1.78723 4.07339Z" transform="matrix(1.00052 0 0 -1 443.171 371.971)"/></g><g><path d="M4.46807 0.37234 0 0.37234 0 0 4.46807 0 4.46807 0.37234Z" transform="matrix(1.00052 0 0 -1 444.974 373.111)"/></g><g><path d="M0 3.90212 0 0 0.62553 0 0.62553 2.15212C0.62553 2.94893 1.04255 3.4702 1.68297 3.4702 2.17446 3.4702 2.48723 3.17233 2.48723 2.70318L2.48723 0 3.10531 0 3.10531 2.94893C3.10531 3.5968 2.62127 4.01382 1.86914 4.01382 1.28829 4.01382 0.915955 3.79042 0.573403 3.2468L0.573403 3.90212 0 3.90212Z" transform="matrix(1.00052 0 0 -1 449.802 371.8)"/></g><path d="M0 111.702-4.34396 116.046-13.0319 116.046-13.0319 107.358-4.34396 107.358Z" stroke="#0000FF" stroke-width="0.620566" fill="none" transform="matrix(1.00052 0 0 1 468.946 269.836)"/><g><path d="M3.0085 2.98616C3.00106 3.75318 2.49467 4.1851 1.59361 4.1851 0.685105 4.1851 0.0968083 3.71595 0.0968083 2.99361 0.0968083 2.38297 0.409573 2.09255 1.33298 1.86914L1.91382 1.72766C2.34574 1.6234 2.51701 1.46702 2.51701 1.19149 2.51701 0.819147 2.15212 0.573403 1.60851 0.573403 1.2734 0.573403 0.990423 0.670211 0.83404 0.83404 0.737232 0.945742 0.692551 1.05744 0.655317 1.33298L0 1.33298C0.0297872 0.431914 0.536169 0 1.55638 0 2.53936 0 3.16489 0.484041 3.16489 1.23617 3.16489 1.81702 2.83723 2.13723 2.06276 2.3234L1.46702 2.46489C0.960636 2.58404 0.744679 2.74787 0.744679 3.0234 0.744679 3.38829 1.06489 3.61169 1.57127 3.61169 2.07021 3.61169 2.33829 3.39574 2.35319 2.98616L3.0085 2.98616Z" transform="matrix(1.00052 0 0 -1 421.371 384.382)"/></g><g><path d="M3.67127 0.536169C3.60425 0.521275 3.57446 0.521275 3.53723 0.521275 3.32127 0.521275 3.20212 0.632977 3.20212 0.826594L3.20212 3.1202C3.20212 3.81276 2.69574 4.1851 1.7351 4.1851 1.1617 4.1851 0.707445 4.02127 0.439361 3.73084 0.260638 3.52978 0.18617 3.30637 0.171276 2.91914L0.796806 2.91914C0.848934 3.39574 1.13191 3.61169 1.71276 3.61169 2.27872 3.61169 2.58404 3.40318 2.58404 3.03084L2.58404 2.86701C2.57659 2.59893 2.44255 2.50212 1.93617 2.4351 1.05744 2.3234 0.923402 2.29361 0.685105 2.1968 0.23085 2.00319 0 1.66063 0 1.15425 0 0.446807 0.491488 0 1.28085 0 1.77234 0 2.16702 0.171276 2.60638 0.573403 2.65106 0.171276 2.84467 0 3.2468 0 3.38084 0 3.46276 0.0148936 3.67127 0.0670211L3.67127 0.536169M2.58404 1.4C2.58404 1.19149 2.52446 1.06489 2.33829 0.893615 2.0851 0.662764 1.77978 0.543616 1.41489 0.543616 0.930849 0.543616 0.647871 0.774466 0.647871 1.16915 0.647871 1.57872 0.915955 1.78723 1.58617 1.88404 2.24893 1.9734 2.37553 2.00319 2.58404 2.09999L2.58404 1.4Z" transform="matrix(1.00052 0 0 -1 425.156 384.382)"/></g><g><path d="M2.04787 0 3.54467 3.90212 2.84467 3.90212 1.74255 0.737232 0.699998 3.90212 0 3.90212 1.37021 0 2.04787 0Z" transform="matrix(1.00052 0 0 -1 429.06 384.211)"/></g><g><path d="M3.52233 1.91383C3.52233 2.50957 3.47765 2.86701 3.36595 3.15744 3.11276 3.79786 2.51701 4.1851 1.78723 4.1851 0.699998 4.1851 0 3.3585 0 2.07021 0 0.781913 0.670211 0 1.77234 0 2.66595 0 3.28403 0.506382 3.44042 1.35532L2.81489 1.35532C2.64361 0.841487 2.29361 0.573403 1.79468 0.573403 1.4 0.573403 1.06489 0.752126 0.856381 1.07978 0.707445 1.30319 0.655317 1.52659 0.647871 1.91383L3.52233 1.91383M0.662764 2.42021C0.714892 3.14255 1.15425 3.61169 1.77978 3.61169 2.41276 3.61169 2.85212 3.1202 2.85212 2.42021L0.662764 2.42021Z" transform="matrix(1.00052 0 0 -1 433.009 384.382)"/></g><g><path d="M4.46807 0.37234 0 0.37234 0 0 4.46807 0 4.46807 0.37234Z" transform="matrix(1.00052 0 0 -1 436.689 385.522)"/></g><g><path d="M0 5.59999 0 0.171276 0.558509 0.171276 0.558509 0.670211C0.856381 0.215957 1.25106 0 1.79468 0 2.82233 0 3.49254 0.841487 3.49254 2.13723 3.49254 3.40318 2.85957 4.1851 1.82446 4.1851 1.28829 4.1851 0.908508 3.98403 0.618084 3.54467L0.618084 5.59999 0 5.59999M1.70531 3.60425C2.39787 3.60425 2.84467 3.00106 2.84467 2.07021 2.84467 1.18404 2.38297 0.58085 1.70531 0.58085 1.04255 0.58085 0.618084 1.17659 0.618084 2.09255 0.618084 3.0085 1.04255 3.60425 1.70531 3.60425Z" transform="matrix(1.00052 0 0 -1 441.398 384.382)"/></g><g><path d="M4.46807 0.37234 0 0.37234 0 0 4.46807 0 4.46807 0.37234Z" transform="matrix(1.00052 0 0 -1 444.974 385.522)"/></g><g><path d="M0 3.90212 0 0 0.62553 0 0.62553 2.15212C0.62553 2.94893 1.04255 3.4702 1.68297 3.4702 2.17446 3.4702 2.48723 3.17233 2.48723 2.70318L2.48723 0 3.10531 0 3.10531 2.94893C3.10531 3.5968 2.62127 4.01382 1.86914 4.01382 1.28829 4.01382 0.915955 3.79042 0.573403 3.2468L0.573403 3.90212 0 3.90212Z" transform="matrix(1.00052 0 0 -1 449.802 384.211)"/></g><path d="M302.836 116.666 340.07 116.666 340.07 166.312 302.836 166.312Z" transform="matrix(1.00052 0 0 1 468.946 269.836)"/><path d="M300.354 114.184 337.588 114.184 337.588 163.829 300.354 163.829Z" fill="#477777" transform="matrix(1.00052 0 0 1 468.946 269.836)"/><path d="M300.354 114.184 337.588 114.184 337.588 163.829 300.354 163.829Z" stroke="#2D2D2D" stroke-width="0.620566" fill="none" transform="matrix(1.00052 0 0 1 468.946 269.836)"/><path d="M297.872 111.702 335.106 111.702 335.106 161.347 297.872 161.347Z" fill="#73ACAC" transform="matrix(1.00052 0 0 1 468.946 269.836)"/><path d="M297.872 111.702 335.106 111.702 335.106 161.347 297.872 161.347Z" stroke="#2D2D2D" stroke-width="0.620566" fill="none" transform="matrix(1.00052 0 0 1 468.946 269.836)"/><path d="M297.872 138.386 302.216 136.524 297.872 134.663" stroke="#2D2D2D" stroke-width="0.620566" fill="none" transform="matrix(1.00052 0 0 1 468.946 269.836)"/><g><path d="M0.62553 5.42871 0 5.42871 0 0 0.62553 0 0.62553 5.42871Z" transform="matrix(1.00052 0 0 -1 765.809 378.755)"/></g><g><path d="M3.67127 0.536169C3.60425 0.521275 3.57446 0.521275 3.53723 0.521275 3.32127 0.521275 3.20212 0.632977 3.20212 0.826594L3.20212 3.1202C3.20212 3.81276 2.69574 4.1851 1.7351 4.1851 1.1617 4.1851 0.707445 4.02127 0.439361 3.73084 0.260638 3.52978 0.18617 3.30637 0.171276 2.91914L0.796806 2.91914C0.848934 3.39574 1.13191 3.61169 1.71276 3.61169 2.27872 3.61169 2.58404 3.40318 2.58404 3.03084L2.58404 2.86701C2.57659 2.59893 2.44255 2.50212 1.93617 2.4351 1.05744 2.3234 0.923402 2.29361 0.685105 2.1968 0.23085 2.00319 0 1.66063 0 1.15425 0 0.446807 0.491488 0 1.28085 0 1.77234 0 2.16702 0.171276 2.60638 0.573403 2.65106 0.171276 2.84467 0 3.2468 0 3.38084 0 3.46276 0.0148936 3.67127 0.0670211L3.67127 0.536169M2.58404 1.4C2.58404 1.19149 2.52446 1.06489 2.33829 0.893615 2.0851 0.662764 1.77978 0.543616 1.41489 0.543616 0.930849 0.543616 0.647871 0.774466 0.647871 1.16915 0.647871 1.57872 0.915955 1.78723 1.58617 1.88404 2.24893 1.9734 2.37553 2.00319 2.58404 2.09999L2.58404 1.4Z" transform="matrix(1.00052 0 0 -1 767.269 378.926)"/></g><g><path d="M1.78723 4.07339 1.14681 4.07339 1.14681 5.14573 0.528722 5.14573 0.528722 4.07339 0 4.07339 0 3.56701 0.528722 3.56701 0.528722 0.618084C0.528722 0.215957 0.796807 0 1.28085 0 1.44468 0 1.57872 0.0148936 1.78723 0.0521275L1.78723 0.573403C1.69787 0.551062 1.61595 0.543616 1.48936 0.543616 1.22127 0.543616 1.14681 0.618084 1.14681 0.893615L1.14681 3.56701 1.78723 3.56701 1.78723 4.07339Z" transform="matrix(1.00052 0 0 -1 771.203 378.926)"/></g><g><path d="M3.27659 2.76276C3.2468 3.14255 3.16489 3.38829 3.01595 3.60425 2.74787 3.96914 2.27872 4.1851 1.7351 4.1851 0.677658 4.1851 0 3.35106 0 2.05531 0 0.796807 0.670211 0 1.72766 0 2.6585 0 3.2468 0.558509 3.32127 1.5117L2.69574 1.5117C2.59148 0.886168 2.27127 0.573403 1.74255 0.573403 1.05744 0.573403 0.647871 1.13191 0.647871 2.05531 0.647871 3.03084 1.05 3.61169 1.72766 3.61169 2.24893 3.61169 2.57659 3.30637 2.65106 2.76276L3.27659 2.76276Z" transform="matrix(1.00052 0 0 -1 773.401 378.926)"/></g><g><path d="M0 5.42871 0 0 0.618084 0 0.618084 2.15212C0.618084 2.94893 1.0351 3.4702 1.67553 3.4702 1.88404 3.4702 2.07765 3.41063 2.22659 3.29893 2.40531 3.16489 2.47978 2.97872 2.47978 2.70318L2.47978 0 3.09786 0 3.09786 2.94893C3.09786 3.60425 2.62872 4.01382 1.86914 4.01382 1.31808 4.01382 0.982976 3.84254 0.618084 3.36595L0.618084 5.42871 0 5.42871Z" transform="matrix(1.00052 0 0 -1 777.417 378.755)"/></g><g><path d="M4.46807 0.37234 0 0.37234 0 0 4.46807 0 4.46807 0.37234Z" transform="matrix(1.00052 0 0 -1 780.874 380.066)"/></g><g><path d="M0 5.59999 0 0.171276 0.558509 0.171276 0.558509 0.670211C0.856381 0.215957 1.25106 0 1.79468 0 2.82233 0 3.49254 0.841487 3.49254 2.13723 3.49254 3.40318 2.85957 4.1851 1.82446 4.1851 1.28829 4.1851 0.908508 3.98403 0.618084 3.54467L0.618084 5.59999 0 5.59999M1.70531 3.60425C2.39787 3.60425 2.84467 3.00106 2.84467 2.07021 2.84467 1.18404 2.38297 0.58085 1.70531 0.58085 1.04255 0.58085 0.618084 1.17659 0.618084 2.09255 0.618084 3.0085 1.04255 3.60425 1.70531 3.60425Z" transform="matrix(1.00052 0 0 -1 785.583 378.926)"/></g><g><path d="M1.3851 7.00743 0 7.00743 0 0 1.3851 0 1.3851 0.536169 0.618083 0.536169 0.618083 6.47126 1.3851 6.47126 1.3851 7.00743Z" transform="matrix(1.00052 0 0 -1 789.8 380.334)"/></g><g><path d="M1.40744 2.65106 1.48936 2.65106 1.76489 2.65106C2.47978 2.65106 2.85957 2.31595 2.85957 1.66808 2.85957 0.990423 2.44999 0.58085 1.77234 0.58085 1.05 0.58085 0.699998 0.945742 0.655317 1.7351L0 1.7351C0.0297872 1.30319 0.104255 1.02021 0.23085 0.781913 0.506382 0.260638 1.02021 0 1.74255 0 2.82978 0 3.52978 0.655317 3.52978 1.67553 3.52978 2.36063 3.26914 2.73297 2.63616 2.95638 3.12765 3.15744 3.3734 3.52978 3.3734 4.07339 3.3734 4.9968 2.77021 5.55531 1.76489 5.55531 0.699998 5.55531 0.134042 4.95956 0.111702 3.8202L0.767019 3.8202C0.774466 4.14786 0.804253 4.33403 0.886168 4.49786 1.0351 4.80318 1.36276 4.9819 1.77234 4.9819 2.35319 4.9819 2.70318 4.6319 2.70318 4.05105 2.70318 3.67127 2.56914 3.44042 2.27872 3.31382 2.09999 3.23935 1.8617 3.20957 1.40744 3.20212L1.40744 2.65106Z" transform="matrix(1.00052 0 0 -1 791.633 378.926)"/></g><g><path d="M0.774466 0.774466 0 0.774466 0 0 0.774466 0 0.774466 0.774466Z" transform="matrix(1.00052 0 0 -1 796.185 378.755)"/></g><g><path d="M0.774466 0.774466 0 0.774466 0 0 0.774466 0 0.774466 0.774466Z" transform="matrix(1.00052 0 0 -1 798.256 378.755)"/></g><g><path d="M1.72766 5.55531C1.23617 5.55531 0.78936 5.3319 0.513829 4.96701 0.171276 4.49041 0 3.77552 0 2.77765 0 0.960636 0.595743 0 1.72766 0 2.84467 0 3.45531 0.960636 3.45531 2.73297 3.45531 3.77552 3.29148 4.47552 2.94148 4.96701 2.66595 5.33935 2.22659 5.55531 1.72766 5.55531M1.72766 4.97446C2.4351 4.97446 2.7851 4.25212 2.7851 2.79255 2.7851 1.25851 2.44255 0.543616 1.71276 0.543616 1.02021 0.543616 0.670211 1.28829 0.670211 2.77021 0.670211 4.25212 1.02021 4.97446 1.72766 4.97446Z" transform="matrix(1.00052 0 0 -1 800 378.926)"/></g><g><path d="M0 0 1.3851 0 1.3851 7.00743 0 7.00743 0 6.47126 0.767019 6.47126 0.767019 0.536169 0 0.536169 0 0Z" transform="matrix(1.00052 0 0 -1 803.993 380.334)"/></g><path d="M291.666 124.113 297.872 124.113" stroke="#06476F" stroke-width="1.8617" fill="none" transform="matrix(1.00052 0 0 1 468.946 269.836)"/><g><path d="M0 0 1.74379 0C2.88563 0 3.58687 0.856381 3.58687 2.26506 3.58687 3.66754 2.89184 4.52392 1.74379 4.52392L0 4.52392 0 0M0.577126 0.508864 0.577126 4.01506 1.6445 4.01506C2.53811 4.01506 3.00974 3.41311 3.00974 2.25886 3.00974 1.11081 2.53811 0.508864 1.6445 0.508864L0.577126 0.508864Z" fill="#06476F" transform="matrix(1.00052 0 0 -1 768.766 396.177)"/></g><path d="M291.666 136.524 297.872 136.524" stroke="#06476F" stroke-width="1.8617" fill="none" transform="matrix(1.00052 0 0 1 468.946 269.836)"/><g><path d="M3.81027 3.26418C3.63031 4.25708 3.05939 4.74112 2.06648 4.74112 1.45833 4.74112 0.968083 4.54875 0.632977 4.17641 0.223404 3.7296 0 3.08421 0 2.35194 0 1.60727 0.229609 0.968083 0.651594 0.527481 1.00532 0.167553 1.45212 0 2.04166 0 3.14627 0 3.76683 0.595743 3.90336 1.79344L3.30762 1.79344C3.25797 1.48315 3.19591 1.27216 3.10283 1.0922 2.91666 0.719856 2.53191 0.508864 2.04787 0.508864 1.14805 0.508864 0.577126 1.22872 0.577126 2.35815 0.577126 3.51861 1.11702 4.23226 1.99822 4.23226 2.36436 4.23226 2.70567 4.12676 2.89184 3.9468 3.05939 3.79166 3.15247 3.60549 3.22074 3.26418L3.81027 3.26418Z" fill="#06476F" transform="matrix(1.00052 0 0 -1 772.857 408.731)"/></g><g><path d="M0.577126 4.52392 0 4.52392 0 0 2.81116 0 2.81116 0.508864 0.577126 0.508864 0.577126 4.52392Z" fill="#06476F" transform="matrix(1.00052 0 0 -1 777.539 408.588)"/></g><g><path d="M0.577126 1.58244 1.3156 2.32092 2.91045 0 3.59308 0 1.73138 2.68084 3.57446 4.52392 2.82978 4.52392 0.577126 2.23404 0.577126 4.52392 0 4.52392 0 0 0.577126 0 0.577126 1.58244Z" fill="#06476F" transform="matrix(1.00052 0 0 -1 780.984 408.588)"/></g><path d="M291.666 148.936 297.872 148.936" stroke="#06476F" stroke-width="1.8617" fill="none" transform="matrix(1.00052 0 0 1 468.946 269.836)"/><g><path d="M3.4007 3.33864C3.4007 3.64893 3.38208 3.73581 3.28279 3.9468 3.03457 4.46807 2.50709 4.74112 1.74379 4.74112 0.750885 4.74112 0.136524 4.23226 0.136524 3.41311 0.136524 2.86081 0.42819 2.51329 1.02393 2.35815L2.14716 2.06028C2.72428 1.91134 2.97872 1.68173 2.97872 1.32801 2.97872 1.08599 2.8484 0.837764 2.65602 0.701239 2.47606 0.570921 2.1906 0.508864 1.82446 0.508864 1.32801 0.508864 0.999111 0.626771 0.781913 0.887409 0.61436 1.08599 0.539892 1.30319 0.546098 1.58244L0 1.58244C0.00620567 1.16666 0.0868792 0.893615 0.266843 0.645388 0.577126 0.217198 1.0984 0 1.78723 0 2.32712 0 2.76772 0.124113 3.05939 0.347517 3.36347 0.589538 3.55584 0.992905 3.55584 1.38386 3.55584 1.94237 3.20833 2.35194 2.59396 2.5195L1.45833 2.82357C0.912232 2.97251 0.713651 3.14627 0.713651 3.49379 0.713651 3.953 1.11702 4.25708 1.72517 4.25708 2.44503 4.25708 2.8484 3.93439 2.8546 3.33864L3.4007 3.33864Z" fill="#06476F" transform="matrix(1.00052 0 0 -1 768.511 421.142)"/></g><g><path d="M3.81027 3.26418C3.63031 4.25708 3.05939 4.74112 2.06648 4.74112 1.45833 4.74112 0.968083 4.54875 0.632977 4.17641 0.223404 3.7296 0 3.08421 0 2.35194 0 1.60727 0.229609 0.968083 0.651594 0.527481 1.00532 0.167553 1.45212 0 2.04166 0 3.14627 0 3.76683 0.595743 3.90336 1.79344L3.30762 1.79344C3.25797 1.48315 3.19591 1.27216 3.10283 1.0922 2.91666 0.719856 2.53191 0.508864 2.04787 0.508864 1.14805 0.508864 0.577126 1.22872 0.577126 2.35815 0.577126 3.51861 1.11702 4.23226 1.99822 4.23226 2.36436 4.23226 2.70567 4.12676 2.89184 3.9468 3.05939 3.79166 3.15247 3.60549 3.22074 3.26418L3.81027 3.26418Z" fill="#06476F" transform="matrix(1.00052 0 0 -1 772.652 421.142)"/></g><g><path d="M0.577126 4.52392 0 4.52392 0 0 2.81116 0 2.81116 0.508864 0.577126 0.508864 0.577126 4.52392Z" fill="#06476F" transform="matrix(1.00052 0 0 -1 777.334 421)"/></g><g><path d="M0.577126 1.94858 2.06648 1.94858C2.58155 1.94858 2.81116 1.70035 2.81116 1.14184L2.80496 0.738473C2.80496 0.459219 2.8546 0.18617 2.93528 0L3.63652 0 3.63652 0.14273C3.41932 0.291666 3.37588 0.453013 3.36347 1.05496 3.35726 1.79964 3.23935 2.02304 2.74911 2.23404 3.25797 2.48847 3.46276 2.79255 3.46276 3.31382 3.46276 4.09573 2.97872 4.52392 2.0851 4.52392L0 4.52392 0 0 0.577126 0 0.577126 1.94858M0.577126 2.45744 0.577126 4.01506 1.9734 4.01506C2.29609 4.01506 2.48226 3.96542 2.62499 3.8413 2.78013 3.71098 2.86081 3.5062 2.86081 3.23935 2.86081 2.69946 2.58776 2.45744 1.9734 2.45744L0.577126 2.45744Z" fill="#06476F" transform="matrix(1.00052 0 0 -1 780.867 421)"/></g><g><path d="M2.22659 1.30319 2.22659 0 2.88191 0 2.88191 1.30319 3.66382 1.30319 3.66382 1.89148 2.88191 1.89148 2.88191 5.38403 2.39787 5.38403 0 1.99574 0 1.30319 2.22659 1.30319M2.22659 1.89148 0.573403 1.89148 2.22659 4.26701 2.22659 1.89148Z" fill="#06476F" transform="matrix(1.00052 0 0 -1 751.856 416.61)"/></g><g><path d="M0 1.82446 0 0.99787 0.201063 0 0.498935 0 0.699998 0.99787 0.699998 1.82446 0 1.82446Z" fill="#06476F" transform="matrix(1.00052 0 0 -1 756.148 413.154)"/></g><g><path d="M0 5.42871 0 0 0.618084 0 0.618084 2.15212C0.618084 2.94893 1.0351 3.4702 1.67553 3.4702 1.88404 3.4702 2.07765 3.41063 2.22659 3.29893 2.40531 3.16489 2.47978 2.97872 2.47978 2.70318L2.47978 0 3.09786 0 3.09786 2.94893C3.09786 3.60425 2.62872 4.01382 1.86914 4.01382 1.31808 4.01382 0.982976 3.84254 0.618084 3.36595L0.618084 5.42871 0 5.42871Z" fill="#06476F" transform="matrix(1.00052 0 0 -1 757.735 416.61)"/></g><g><path d="M1.72766 5.55531C1.23617 5.55531 0.78936 5.3319 0.513829 4.96701 0.171276 4.49041 0 3.77552 0 2.77765 0 0.960636 0.595743 0 1.72766 0 2.84467 0 3.45531 0.960636 3.45531 2.73297 3.45531 3.77552 3.29148 4.47552 2.94148 4.96701 2.66595 5.33935 2.22659 5.55531 1.72766 5.55531M1.72766 4.97446C2.4351 4.97446 2.7851 4.25212 2.7851 2.79255 2.7851 1.25851 2.44255 0.543616 1.71276 0.543616 1.02021 0.543616 0.670211 1.28829 0.670211 2.77021 0.670211 4.25212 1.02021 4.97446 1.72766 4.97446Z" fill="#06476F" transform="matrix(1.00052 0 0 -1 761.676 416.781)"/></g><path d="M341.311 136.524 335.106 136.524" stroke="#06476F" stroke-width="1.8617" fill="none" transform="matrix(1.00052 0 0 1 468.946 269.836)"/><g><path d="M4.31293 0.359928 3.7296 0.837764C4.15779 1.30939 4.36878 1.88652 4.36878 2.60638 4.36878 4.01506 3.48758 4.96453 2.18439 4.96453 0.874998 4.96453 0 4.01506 0 2.59397 0 1.17908 0.874998 0.223404 2.18439 0.223404 2.6374 0.223404 3.00354 0.322694 3.36967 0.539892L4.02127 0 4.31293 0.359928M2.74911 1.63829 2.46365 1.29078 2.92286 0.906026C2.65602 0.775707 2.45124 0.732268 2.17819 0.732268 1.21631 0.732268 0.577126 1.47695 0.577126 2.59397 0.577126 3.71098 1.21631 4.45566 2.18439 4.45566 3.14627 4.45566 3.79166 3.71098 3.79166 2.60017 3.79166 2.01063 3.63652 1.56383 3.30141 1.18528L2.74911 1.63829Z" fill="#06476F" transform="matrix(1.00052 0 0 -1 798.388 408.954)"/></g><path d="M48.4041 129.078 73.2268 138.386 73.2268 157.003 48.4041 166.312Z" transform="matrix(1.00052 0 0 1 468.946 269.836)"/><path d="M45.9219 126.595 70.7445 135.904 70.7445 154.521 45.9219 163.829Z" fill="#477777" transform="matrix(1.00052 0 0 1 468.946 269.836)"/><path d="M45.9219 126.595 70.7445 135.904 70.7445 154.521 45.9219 163.829Z" stroke="#2D2D2D" stroke-width="0.620566" fill="none" transform="matrix(1.00052 0 0 1 468.946 269.836)"/><path d="M43.4396 124.113 68.2622 133.422 68.2622 152.039 43.4396 161.347Z" fill="#73ACAC" transform="matrix(1.00052 0 0 1 468.946 269.836)"/><path d="M43.4396 124.113 68.2622 133.422 68.2622 152.039 43.4396 161.347Z" stroke="#2D2D2D" stroke-width="0.620566" fill="none" transform="matrix(1.00052 0 0 1 468.946 269.836)"/><g><path d="M0.62553 5.42871 0 5.42871 0 0 0.62553 0 0.62553 5.42871Z" transform="matrix(1.00052 0 0 -1 527.816 396.131)"/></g><g><path d="M3.67127 0.536169C3.60425 0.521275 3.57446 0.521275 3.53723 0.521275 3.32127 0.521275 3.20212 0.632977 3.20212 0.826594L3.20212 3.1202C3.20212 3.81276 2.69574 4.1851 1.7351 4.1851 1.1617 4.1851 0.707445 4.02127 0.439361 3.73084 0.260638 3.52978 0.18617 3.30637 0.171276 2.91914L0.796806 2.91914C0.848934 3.39574 1.13191 3.61169 1.71276 3.61169 2.27872 3.61169 2.58404 3.40318 2.58404 3.03084L2.58404 2.86701C2.57659 2.59893 2.44255 2.50212 1.93617 2.4351 1.05744 2.3234 0.923402 2.29361 0.685105 2.1968 0.23085 2.00319 0 1.66063 0 1.15425 0 0.446807 0.491488 0 1.28085 0 1.77234 0 2.16702 0.171276 2.60638 0.573403 2.65106 0.171276 2.84467 0 3.2468 0 3.38084 0 3.46276 0.0148936 3.67127 0.0670211L3.67127 0.536169M2.58404 1.4C2.58404 1.19149 2.52446 1.06489 2.33829 0.893615 2.0851 0.662764 1.77978 0.543616 1.41489 0.543616 0.930849 0.543616 0.647871 0.774466 0.647871 1.16915 0.647871 1.57872 0.915955 1.78723 1.58617 1.88404 2.24893 1.9734 2.37553 2.00319 2.58404 2.09999L2.58404 1.4Z" transform="matrix(1.00052 0 0 -1 529.276 396.302)"/></g><g><path d="M1.78723 4.07339 1.14681 4.07339 1.14681 5.14573 0.528722 5.14573 0.528722 4.07339 0 4.07339 0 3.56701 0.528722 3.56701 0.528722 0.618084C0.528722 0.215957 0.796807 0 1.28085 0 1.44468 0 1.57872 0.0148936 1.78723 0.0521275L1.78723 0.573403C1.69787 0.551062 1.61595 0.543616 1.48936 0.543616 1.22127 0.543616 1.14681 0.618084 1.14681 0.893615L1.14681 3.56701 1.78723 3.56701 1.78723 4.07339Z" transform="matrix(1.00052 0 0 -1 533.21 396.302)"/></g><g><path d="M3.27659 2.76276C3.2468 3.14255 3.16489 3.38829 3.01595 3.60425 2.74787 3.96914 2.27872 4.1851 1.7351 4.1851 0.677658 4.1851 0 3.35106 0 2.05531 0 0.796807 0.670211 0 1.72766 0 2.6585 0 3.2468 0.558509 3.32127 1.5117L2.69574 1.5117C2.59148 0.886168 2.27127 0.573403 1.74255 0.573403 1.05744 0.573403 0.647871 1.13191 0.647871 2.05531 0.647871 3.03084 1.05 3.61169 1.72766 3.61169 2.24893 3.61169 2.57659 3.30637 2.65106 2.76276L3.27659 2.76276Z" transform="matrix(1.00052 0 0 -1 535.408 396.302)"/></g><g><path d="M0 5.42871 0 0 0.618084 0 0.618084 2.15212C0.618084 2.94893 1.0351 3.4702 1.67553 3.4702 1.88404 3.4702 2.07765 3.41063 2.22659 3.29893 2.40531 3.16489 2.47978 2.97872 2.47978 2.70318L2.47978 0 3.09786 0 3.09786 2.94893C3.09786 3.60425 2.62872 4.01382 1.86914 4.01382 1.31808 4.01382 0.982976 3.84254 0.618084 3.36595L0.618084 5.42871 0 5.42871Z" transform="matrix(1.00052 0 0 -1 539.424 396.131)"/></g><g><path d="M4.46807 0.37234 0 0.37234 0 0 4.46807 0 4.46807 0.37234Z" transform="matrix(1.00052 0 0 -1 542.881 397.442)"/></g><g><path d="M0 5.59999 0 0.171276 0.558509 0.171276 0.558509 0.670211C0.856381 0.215957 1.25106 0 1.79468 0 2.82233 0 3.49254 0.841487 3.49254 2.13723 3.49254 3.40318 2.85957 4.1851 1.82446 4.1851 1.28829 4.1851 0.908508 3.98403 0.618084 3.54467L0.618084 5.59999 0 5.59999M1.70531 3.60425C2.39787 3.60425 2.84467 3.00106 2.84467 2.07021 2.84467 1.18404 2.38297 0.58085 1.70531 0.58085 1.04255 0.58085 0.618084 1.17659 0.618084 2.09255 0.618084 3.0085 1.04255 3.60425 1.70531 3.60425Z" transform="matrix(1.00052 0 0 -1 547.59 396.302)"/></g><g><path d="M2.82978 1.06489C2.83723 0.670211 2.72552 0.506382 2.44999 0.506382 2.33829 0.506382 2.22659 0.543616 2.07765 0.632977L1.20638 1.14681C1.07978 1.22872 0.938295 1.26595 0.804253 1.26595 0.320212 1.26595 0.037234 0.893615 0 0.18617L0.39468 0.18617C0.409573 0.357446 0.424467 0.431914 0.454254 0.506382 0.528722 0.670211 0.647871 0.767019 0.78936 0.767019 0.863828 0.767019 1.0351 0.707445 1.10957 0.662764L1.83936 0.193616C2.03297 0.074468 2.25638 0 2.44255 0 2.92659 0 3.22446 0.364893 3.22446 0.945742L3.22446 1.06489 2.82978 1.06489Z" transform="matrix(1.00052 0 0 -1 551.889 394.135)"/></g><g><path d="M1.3851 7.00743 0 7.00743 0 0 1.3851 0 1.3851 0.536169 0.618083 0.536169 0.618083 6.47126 1.3851 6.47126 1.3851 7.00743Z" transform="matrix(1.00052 0 0 -1 556.158 397.71)"/></g><g><path d="M1.40744 2.65106 1.48936 2.65106 1.76489 2.65106C2.47978 2.65106 2.85957 2.31595 2.85957 1.66808 2.85957 0.990423 2.44999 0.58085 1.77234 0.58085 1.05 0.58085 0.699998 0.945742 0.655317 1.7351L0 1.7351C0.0297872 1.30319 0.104255 1.02021 0.23085 0.781913 0.506382 0.260638 1.02021 0 1.74255 0 2.82978 0 3.52978 0.655317 3.52978 1.67553 3.52978 2.36063 3.26914 2.73297 2.63616 2.95638 3.12765 3.15744 3.3734 3.52978 3.3734 4.07339 3.3734 4.9968 2.77021 5.55531 1.76489 5.55531 0.699998 5.55531 0.134042 4.95956 0.111702 3.8202L0.767019 3.8202C0.774466 4.14786 0.804253 4.33403 0.886168 4.49786 1.0351 4.80318 1.36276 4.9819 1.77234 4.9819 2.35319 4.9819 2.70318 4.6319 2.70318 4.05105 2.70318 3.67127 2.56914 3.44042 2.27872 3.31382 2.09999 3.23935 1.8617 3.20957 1.40744 3.20212L1.40744 2.65106Z" transform="matrix(1.00052 0 0 -1 557.991 396.302)"/></g><g><path d="M0.774466 0.774466 0 0.774466 0 0 0.774466 0 0.774466 0.774466Z" transform="matrix(1.00052 0 0 -1 562.543 396.131)"/></g><g><path d="M0.774466 0.774466 0 0.774466 0 0 0.774466 0 0.774466 0.774466Z" transform="matrix(1.00052 0 0 -1 564.614 396.131)"/></g><g><path d="M1.72766 5.55531C1.23617 5.55531 0.78936 5.3319 0.513829 4.96701 0.171276 4.49041 0 3.77552 0 2.77765 0 0.960636 0.595743 0 1.72766 0 2.84467 0 3.45531 0.960636 3.45531 2.73297 3.45531 3.77552 3.29148 4.47552 2.94148 4.96701 2.66595 5.33935 2.22659 5.55531 1.72766 5.55531M1.72766 4.97446C2.4351 4.97446 2.7851 4.25212 2.7851 2.79255 2.7851 1.25851 2.44255 0.543616 1.71276 0.543616 1.02021 0.543616 0.670211 1.28829 0.670211 2.77021 0.670211 4.25212 1.02021 4.97446 1.72766 4.97446Z" transform="matrix(1.00052 0 0 -1 566.358 396.302)"/></g><g><path d="M0 0 1.3851 0 1.3851 7.00743 0 7.00743 0 6.47126 0.767019 6.47126 0.767019 0.536169 0 0.536169 0 0Z" transform="matrix(1.00052 0 0 -1 570.351 397.71)"/></g><path d="M37.2339 136.524 43.4396 136.524" stroke="#06476F" stroke-width="1.8617" fill="none" transform="matrix(1.00052 0 0 1 468.946 269.836)"/><g><path d="M1.43971 4.62942C1.03014 4.62942 0.6578 4.44325 0.42819 4.13917 0.14273 3.74201 0 3.14627 0 2.31471 0 0.80053 0.496453 0 1.43971 0 2.37056 0 2.87943 0.80053 2.87943 2.27748 2.87943 3.14627 2.7429 3.7296 2.45123 4.13917 2.22163 4.44946 1.85549 4.62942 1.43971 4.62942M1.43971 4.14538C2.02925 4.14538 2.32092 3.54343 2.32092 2.32712 2.32092 1.04876 2.03546 0.453013 1.4273 0.453013 0.850175 0.453013 0.558509 1.07358 0.558509 2.3085 0.558509 3.54343 0.850175 4.14538 1.43971 4.14538Z" fill="#06476F" transform="matrix(1.00052 0 0 -1 507.981 404.598)"/></g><path d="M37.2339 148.936 43.4396 148.936" stroke="#06476F" stroke-width="1.8617" fill="none" transform="matrix(1.00052 0 0 1 468.946 269.836)"/><g><path d="M0.974288 3.19591 0.974288 0 1.52039 0 1.52039 4.48669 1.16046 4.48669C0.968083 3.79786 0.843969 3.70478 0 3.59308L0 3.19591 0.974288 3.19591Z" fill="#06476F" transform="matrix(1.00052 0 0 -1 508.347 416.867)"/></g><path d="M57.7126 127.216C57.7126 126.188 56.8791 125.354 55.8509 125.354 54.8227 125.354 53.9892 126.188 53.9892 127.216 53.9892 128.244 54.8227 129.078 55.8509 129.078 56.8791 129.078 57.7126 128.244 57.7126 127.216" stroke="#06476F" stroke-width="1.8617" fill="none" transform="matrix(1.00052 0 0 1 468.946 269.836)"/><path d="M55.8509 124.113 55.8509 125.354" stroke="#06476F" stroke-width="1.8617" fill="none" transform="matrix(1.00052 0 0 1 468.946 269.836)"/><path d="M74.4679 142.73 68.2622 142.73" stroke="#06476F" stroke-width="1.8617" fill="none" transform="matrix(1.00052 0 0 1 468.946 269.836)"/><path d="M178.723 116.666 203.546 125.975 203.546 144.592 178.723 153.9Z" transform="matrix(1.00052 0 0 1 468.946 269.836)"/><path d="M176.241 114.184 201.063 123.493 201.063 142.11 176.241 151.418Z" fill="#477777" transform="matrix(1.00052 0 0 1 468.946 269.836)"/><path d="M176.241 114.184 201.063 123.493 201.063 142.11 176.241 151.418Z" stroke="#2D2D2D" stroke-width="0.620566" fill="none" transform="matrix(1.00052 0 0 1 468.946 269.836)"/><path d="M173.758 111.702 198.581 121.01 198.581 139.627 173.758 148.936Z" fill="#73ACAC" transform="matrix(1.00052 0 0 1 468.946 269.836)"/><path d="M173.758 111.702 198.581 121.01 198.581 139.627 173.758 148.936Z" stroke="#2D2D2D" stroke-width="0.620566" fill="none" transform="matrix(1.00052 0 0 1 468.946 269.836)"/><g><path d="M0.62553 5.42871 0 5.42871 0 0 0.62553 0 0.62553 5.42871Z" transform="matrix(1.00052 0 0 -1 658.202 383.72)"/></g><g><path d="M3.67127 0.536169C3.60425 0.521275 3.57446 0.521275 3.53723 0.521275 3.32127 0.521275 3.20212 0.632977 3.20212 0.826594L3.20212 3.1202C3.20212 3.81276 2.69574 4.1851 1.7351 4.1851 1.1617 4.1851 0.707445 4.02127 0.439361 3.73084 0.260638 3.52978 0.18617 3.30637 0.171276 2.91914L0.796806 2.91914C0.848934 3.39574 1.13191 3.61169 1.71276 3.61169 2.27872 3.61169 2.58404 3.40318 2.58404 3.03084L2.58404 2.86701C2.57659 2.59893 2.44255 2.50212 1.93617 2.4351 1.05744 2.3234 0.923402 2.29361 0.685105 2.1968 0.23085 2.00319 0 1.66063 0 1.15425 0 0.446807 0.491488 0 1.28085 0 1.77234 0 2.16702 0.171276 2.60638 0.573403 2.65106 0.171276 2.84467 0 3.2468 0 3.38084 0 3.46276 0.0148936 3.67127 0.0670211L3.67127 0.536169M2.58404 1.4C2.58404 1.19149 2.52446 1.06489 2.33829 0.893615 2.0851 0.662764 1.77978 0.543616 1.41489 0.543616 0.930849 0.543616 0.647871 0.774466 0.647871 1.16915 0.647871 1.57872 0.915955 1.78723 1.58617 1.88404 2.24893 1.9734 2.37553 2.00319 2.58404 2.09999L2.58404 1.4Z" transform="matrix(1.00052 0 0 -1 659.662 383.891)"/></g><g><path d="M1.78723 4.07339 1.14681 4.07339 1.14681 5.14573 0.528722 5.14573 0.528722 4.07339 0 4.07339 0 3.56701 0.528722 3.56701 0.528722 0.618084C0.528722 0.215957 0.796807 0 1.28085 0 1.44468 0 1.57872 0.0148936 1.78723 0.0521275L1.78723 0.573403C1.69787 0.551062 1.61595 0.543616 1.48936 0.543616 1.22127 0.543616 1.14681 0.618084 1.14681 0.893615L1.14681 3.56701 1.78723 3.56701 1.78723 4.07339Z" transform="matrix(1.00052 0 0 -1 663.596 383.891)"/></g><g><path d="M3.27659 2.76276C3.2468 3.14255 3.16489 3.38829 3.01595 3.60425 2.74787 3.96914 2.27872 4.1851 1.7351 4.1851 0.677658 4.1851 0 3.35106 0 2.05531 0 0.796807 0.670211 0 1.72766 0 2.6585 0 3.2468 0.558509 3.32127 1.5117L2.69574 1.5117C2.59148 0.886168 2.27127 0.573403 1.74255 0.573403 1.05744 0.573403 0.647871 1.13191 0.647871 2.05531 0.647871 3.03084 1.05 3.61169 1.72766 3.61169 2.24893 3.61169 2.57659 3.30637 2.65106 2.76276L3.27659 2.76276Z" transform="matrix(1.00052 0 0 -1 665.794 383.891)"/></g><g><path d="M0 5.42871 0 0 0.618084 0 0.618084 2.15212C0.618084 2.94893 1.0351 3.4702 1.67553 3.4702 1.88404 3.4702 2.07765 3.41063 2.22659 3.29893 2.40531 3.16489 2.47978 2.97872 2.47978 2.70318L2.47978 0 3.09786 0 3.09786 2.94893C3.09786 3.60425 2.62872 4.01382 1.86914 4.01382 1.31808 4.01382 0.982976 3.84254 0.618084 3.36595L0.618084 5.42871 0 5.42871Z" transform="matrix(1.00052 0 0 -1 669.81 383.72)"/></g><g><path d="M4.46807 0.37234 0 0.37234 0 0 4.46807 0 4.46807 0.37234Z" transform="matrix(1.00052 0 0 -1 673.267 385.03)"/></g><g><path d="M0 5.59999 0 0.171276 0.558509 0.171276 0.558509 0.670211C0.856381 0.215957 1.25106 0 1.79468 0 2.82233 0 3.49254 0.841487 3.49254 2.13723 3.49254 3.40318 2.85957 4.1851 1.82446 4.1851 1.28829 4.1851 0.908508 3.98403 0.618084 3.54467L0.618084 5.59999 0 5.59999M1.70531 3.60425C2.39787 3.60425 2.84467 3.00106 2.84467 2.07021 2.84467 1.18404 2.38297 0.58085 1.70531 0.58085 1.04255 0.58085 0.618084 1.17659 0.618084 2.09255 0.618084 3.0085 1.04255 3.60425 1.70531 3.60425Z" transform="matrix(1.00052 0 0 -1 677.976 383.891)"/></g><g><path d="M2.82978 1.06489C2.83723 0.670211 2.72552 0.506382 2.44999 0.506382 2.33829 0.506382 2.22659 0.543616 2.07765 0.632977L1.20638 1.14681C1.07978 1.22872 0.938295 1.26595 0.804253 1.26595 0.320212 1.26595 0.037234 0.893615 0 0.18617L0.39468 0.18617C0.409573 0.357446 0.424467 0.431914 0.454254 0.506382 0.528722 0.670211 0.647871 0.767019 0.78936 0.767019 0.863828 0.767019 1.0351 0.707445 1.10957 0.662764L1.83936 0.193616C2.03297 0.074468 2.25638 0 2.44255 0 2.92659 0 3.22446 0.364893 3.22446 0.945742L3.22446 1.06489 2.82978 1.06489Z" transform="matrix(1.00052 0 0 -1 682.275 381.724)"/></g><g><path d="M1.3851 7.00743 0 7.00743 0 0 1.3851 0 1.3851 0.536169 0.618083 0.536169 0.618083 6.47126 1.3851 6.47126 1.3851 7.00743Z" transform="matrix(1.00052 0 0 -1 686.544 385.298)"/></g><g><path d="M3.52978 5.27977 0 5.27977 0 4.6319 2.85212 4.6319C1.59361 2.83723 1.07978 1.7351 0.685105 0L1.3851 0C1.67553 1.69042 2.33829 3.14255 3.52978 4.72871L3.52978 5.27977Z" transform="matrix(1.00052 0 0 -1 688.481 383.72)"/></g><g><path d="M0.774466 0.774466 0 0.774466 0 0 0.774466 0 0.774466 0.774466Z" transform="matrix(1.00052 0 0 -1 692.929 383.72)"/></g><g><path d="M0.774466 0.774466 0 0.774466 0 0 0.774466 0 0.774466 0.774466Z" transform="matrix(1.00052 0 0 -1 695 383.72)"/></g><g><path d="M2.22659 1.30319 2.22659 0 2.88191 0 2.88191 1.30319 3.66382 1.30319 3.66382 1.89148 2.88191 1.89148 2.88191 5.38403 2.39787 5.38403 0 1.99574 0 1.30319 2.22659 1.30319M2.22659 1.89148 0.573403 1.89148 2.22659 4.26701 2.22659 1.89148Z" transform="matrix(1.00052 0 0 -1 696.632 383.72)"/></g><g><path d="M0 0 1.3851 0 1.3851 7.00743 0 7.00743 0 6.47126 0.767019 6.47126 0.767019 0.536169 0 0.536169 0 0Z" transform="matrix(1.00052 0 0 -1 700.737 385.298)"/></g><path d="M167.553 124.113 173.758 124.113" stroke="#06476F" stroke-width="1.8617" fill="none" transform="matrix(1.00052 0 0 1 468.946 269.836)"/><g><path d="M1.43971 4.62942C1.03014 4.62942 0.6578 4.44325 0.42819 4.13917 0.14273 3.74201 0 3.14627 0 2.31471 0 0.80053 0.496453 0 1.43971 0 2.37056 0 2.87943 0.80053 2.87943 2.27748 2.87943 3.14627 2.7429 3.7296 2.45123 4.13917 2.22163 4.44946 1.85549 4.62942 1.43971 4.62942M1.43971 4.14538C2.02925 4.14538 2.32092 3.54343 2.32092 2.32712 2.32092 1.04876 2.03546 0.453013 1.4273 0.453013 0.850175 0.453013 0.558509 1.07358 0.558509 2.3085 0.558509 3.54343 0.850175 4.14538 1.43971 4.14538Z" fill="#06476F" transform="matrix(1.00052 0 0 -1 638.367 392.187)"/></g><path d="M167.553 136.524 173.758 136.524" stroke="#06476F" stroke-width="1.8617" fill="none" transform="matrix(1.00052 0 0 1 468.946 269.836)"/><g><path d="M0.974288 3.19591 0.974288 0 1.52039 0 1.52039 4.48669 1.16046 4.48669C0.968083 3.79786 0.843969 3.70478 0 3.59308L0 3.19591 0.974288 3.19591Z" fill="#06476F" transform="matrix(1.00052 0 0 -1 638.733 404.455)"/></g><g><path d="M2.22659 1.30319 2.22659 0 2.88191 0 2.88191 1.30319 3.66382 1.30319 3.66382 1.89148 2.88191 1.89148 2.88191 5.38403 2.39787 5.38403 0 1.99574 0 1.30319 2.22659 1.30319M2.22659 1.89148 0.573403 1.89148 2.22659 4.26701 2.22659 1.89148Z" fill="#06476F" transform="matrix(1.00052 0 0 -1 622.091 404.198)"/></g><g><path d="M0 1.82446 0 0.99787 0.201063 0 0.498935 0 0.699998 0.99787 0.699998 1.82446 0 1.82446Z" fill="#06476F" transform="matrix(1.00052 0 0 -1 626.383 400.743)"/></g><g><path d="M0 5.42871 0 0 0.618084 0 0.618084 2.15212C0.618084 2.94893 1.0351 3.4702 1.67553 3.4702 1.88404 3.4702 2.07765 3.41063 2.22659 3.29893 2.40531 3.16489 2.47978 2.97872 2.47978 2.70318L2.47978 0 3.09786 0 3.09786 2.94893C3.09786 3.60425 2.62872 4.01382 1.86914 4.01382 1.31808 4.01382 0.982976 3.84254 0.618084 3.36595L0.618084 5.42871 0 5.42871Z" fill="#06476F" transform="matrix(1.00052 0 0 -1 627.97 404.198)"/></g><g><path d="M1.72766 5.55531C1.23617 5.55531 0.78936 5.3319 0.513829 4.96701 0.171276 4.49041 0 3.77552 0 2.77765 0 0.960636 0.595743 0 1.72766 0 2.84467 0 3.45531 0.960636 3.45531 2.73297 3.45531 3.77552 3.29148 4.47552 2.94148 4.96701 2.66595 5.33935 2.22659 5.55531 1.72766 5.55531M1.72766 4.97446C2.4351 4.97446 2.7851 4.25212 2.7851 2.79255 2.7851 1.25851 2.44255 0.543616 1.71276 0.543616 1.02021 0.543616 0.670211 1.28829 0.670211 2.77021 0.670211 4.25212 1.02021 4.97446 1.72766 4.97446Z" fill="#06476F" transform="matrix(1.00052 0 0 -1 631.911 404.37)"/></g><path d="M186.17 111.702 186.17 116.666" stroke="#06476F" stroke-width="1.8617" fill="none" transform="matrix(1.00052 0 0 1 468.946 269.836)"/><path d="M204.787 130.319 198.581 130.319" stroke="#06476F" stroke-width="1.8617" fill="none" transform="matrix(1.00052 0 0 1 468.946 269.836)"/><path d="M366.134 136.524 366.134 132.181 374.822 132.181 379.166 136.524 374.822 140.868 366.134 140.868Z" stroke="#0000FF" stroke-width="1.8617" fill="none" transform="matrix(1.00052 0 0 1 468.946 269.836)"/><g><path d="M3.49254 0 3.49254 5.52552 2.94148 5.52552 2.94148 5.00424C2.65106 5.41382 2.2117 5.63722 1.69787 5.63722 0.670211 5.63722 0 4.79573 0 3.49999 0 2.23404 0.632977 1.45212 1.66808 1.45212 2.2117 1.45212 2.58404 1.64574 2.87446 2.07021L2.87446 0 3.49254 0M1.78723 5.05637C2.44999 5.05637 2.87446 4.46807 2.87446 3.52233 2.87446 2.62872 2.44255 2.03297 1.78723 2.03297 1.10212 2.03297 0.647871 2.63616 0.647871 3.54467 0.647871 4.45318 1.10212 5.05637 1.78723 5.05637Z" transform="matrix(1.00052 0 0 -1 853.468 410.657)"/></g><g><path d="M4.46807 0.37234 0 0.37234 0 0 4.46807 0 4.46807 0.37234Z" transform="matrix(1.00052 0 0 -1 857.253 410.345)"/></g><g><path d="M0 5.59999 0 0.171276 0.558509 0.171276 0.558509 0.670211C0.856381 0.215957 1.25106 0 1.79468 0 2.82233 0 3.49254 0.841487 3.49254 2.13723 3.49254 3.40318 2.85957 4.1851 1.82446 4.1851 1.28829 4.1851 0.908508 3.98403 0.618084 3.54467L0.618084 5.59999 0 5.59999M1.70531 3.60425C2.39787 3.60425 2.84467 3.00106 2.84467 2.07021 2.84467 1.18404 2.38297 0.58085 1.70531 0.58085 1.04255 0.58085 0.618084 1.17659 0.618084 2.09255 0.618084 3.0085 1.04255 3.60425 1.70531 3.60425Z" transform="matrix(1.00052 0 0 -1 861.962 409.205)"/></g><g><path d="M1.3851 7.00743 0 7.00743 0 0 1.3851 0 1.3851 0.536169 0.618083 0.536169 0.618083 6.47126 1.3851 6.47126 1.3851 7.00743Z" transform="matrix(1.00052 0 0 -1 866.179 410.613)"/></g><g><path d="M1.40744 2.65106 1.48936 2.65106 1.76489 2.65106C2.47978 2.65106 2.85957 2.31595 2.85957 1.66808 2.85957 0.990423 2.44999 0.58085 1.77234 0.58085 1.05 0.58085 0.699998 0.945742 0.655317 1.7351L0 1.7351C0.0297872 1.30319 0.104255 1.02021 0.23085 0.781913 0.506382 0.260638 1.02021 0 1.74255 0 2.82978 0 3.52978 0.655317 3.52978 1.67553 3.52978 2.36063 3.26914 2.73297 2.63616 2.95638 3.12765 3.15744 3.3734 3.52978 3.3734 4.07339 3.3734 4.9968 2.77021 5.55531 1.76489 5.55531 0.699998 5.55531 0.134042 4.95956 0.111702 3.8202L0.767019 3.8202C0.774466 4.14786 0.804253 4.33403 0.886168 4.49786 1.0351 4.80318 1.36276 4.9819 1.77234 4.9819 2.35319 4.9819 2.70318 4.6319 2.70318 4.05105 2.70318 3.67127 2.56914 3.44042 2.27872 3.31382 2.09999 3.23935 1.8617 3.20957 1.40744 3.20212L1.40744 2.65106Z" transform="matrix(1.00052 0 0 -1 868.012 409.205)"/></g><g><path d="M0.774466 0.774466 0 0.774466 0 0 0.774466 0 0.774466 0.774466Z" transform="matrix(1.00052 0 0 -1 872.564 409.034)"/></g><g><path d="M0.774466 0.774466 0 0.774466 0 0 0.774466 0 0.774466 0.774466Z" transform="matrix(1.00052 0 0 -1 874.635 409.034)"/></g><g><path d="M1.72766 5.55531C1.23617 5.55531 0.78936 5.3319 0.513829 4.96701 0.171276 4.49041 0 3.77552 0 2.77765 0 0.960636 0.595743 0 1.72766 0 2.84467 0 3.45531 0.960636 3.45531 2.73297 3.45531 3.77552 3.29148 4.47552 2.94148 4.96701 2.66595 5.33935 2.22659 5.55531 1.72766 5.55531M1.72766 4.97446C2.4351 4.97446 2.7851 4.25212 2.7851 2.79255 2.7851 1.25851 2.44255 0.543616 1.71276 0.543616 1.02021 0.543616 0.670211 1.28829 0.670211 2.77021 0.670211 4.25212 1.02021 4.97446 1.72766 4.97446Z" transform="matrix(1.00052 0 0 -1 876.379 409.205)"/></g><g><path d="M0 0 1.3851 0 1.3851 7.00743 0 7.00743 0 6.47126 0.767019 6.47126 0.767019 0.536169 0 0.536169 0 0Z" transform="matrix(1.00052 0 0 -1 880.372 410.613)"/></g><path d="M0 86.8792 266.843 86.8792" stroke="#2D2D2D" stroke-width="0.620566" fill="none" transform="matrix(1.00052 0 0 1 468.946 269.836)"/><path d="M265.602 85.6381 268.705 85.6381 268.705 88.7409 265.602 88.7409Z" fill="#2D2D2D" transform="matrix(1.00052 0 0 1 468.946 269.836)"/><path d="M291.666 37.2339 266.843 37.2339 266.843 136.524 291.666 136.524" stroke="#2D2D2D" stroke-width="0.620566" fill="none" transform="matrix(1.00052 0 0 1 468.946 269.836)"/><path d="M0 99.2905 136.524 99.2905" stroke="#2D2D2D" stroke-width="0.620566" fill="none" transform="matrix(1.00052 0 0 1 468.946 269.836)"/><path d="M135.283 98.0494 138.386 98.0494 138.386 101.152 135.283 101.152Z" fill="#2D2D2D" transform="matrix(1.00052 0 0 1 468.946 269.836)"/><path d="M186.17 24.8226 186.17 12.4113 136.524 12.4113 136.524 99.2905 186.17 99.2905 186.17 111.702" stroke="#2D2D2D" stroke-width="0.620566" fill="none" transform="matrix(1.00052 0 0 1 468.946 269.836)"/><path d="M0 12.4113 55.8509 12.4113 55.8509 24.8226" stroke="#2D2D2D" stroke-width="0.620566" fill="none" transform="matrix(1.00052 0 0 1 468.946 269.836)"/><path d="M0 111.702 55.8509 111.702 55.8509 124.113" stroke="#2D2D2D" stroke-width="0.620566" fill="none" transform="matrix(1.00052 0 0 1 468.946 269.836)"/><path d="M0 49.6453 12.4113 49.6453 12.4113 148.936 37.2339 148.936" stroke="#2D2D2D" stroke-width="1.8617" fill="none" transform="matrix(1.00052 0 0 1 468.946 269.836)"/><path d="M12.4113 49.6453 37.2339 49.6453" stroke="#2D2D2D" stroke-width="1.8617" fill="none" transform="matrix(1.00052 0 0 1 468.946 269.836)"/><path d="M10.5496 47.7836 14.8936 47.7836 14.8936 52.1275 10.5496 52.1275Z" fill="#2D2D2D" transform="matrix(1.00052 0 0 1 468.946 269.836)"/><path d="M37.2339 136.524 24.8226 136.524 24.8226 173.758 353.723 173.758 353.723 136.524 341.311 136.524" stroke="#2D2D2D" stroke-width="1.8617" fill="none" transform="matrix(1.00052 0 0 1 468.946 269.836)"/><path d="M353.723 136.524 366.134 136.524" stroke="#2D2D2D" stroke-width="1.8617" fill="none" transform="matrix(1.00052 0 0 1 468.946 269.836)"/><path d="M351.861 134.663 356.205 134.663 356.205 139.007 351.861 139.007Z" fill="#2D2D2D" transform="matrix(1.00052 0 0 1 468.946 269.836)"/><path d="M37.2339 37.2339 24.8226 37.2339 24.8226 74.4679 353.723 74.4679 353.723 37.2339 341.311 37.2339" stroke="#2D2D2D" stroke-width="1.8617" fill="none" transform="matrix(1.00052 0 0 1 468.946 269.836)"/><path d="M353.723 37.2339 366.134 37.2339" stroke="#2D2D2D" stroke-width="1.8617" fill="none" transform="matrix(1.00052 0 0 1 468.946 269.836)"/><path d="M351.861 35.3722 356.205 35.3722 356.205 39.7162 351.861 39.7162Z" fill="#2D2D2D" transform="matrix(1.00052 0 0 1 468.946 269.836)"/><path d="M74.4679 43.4396 124.113 43.4396 124.113 37.2339 167.553 37.2339" stroke="#2D2D2D" stroke-width="1.8617" fill="none" transform="matrix(1.00052 0 0 1 468.946 269.836)"/><path d="M204.787 43.4396 254.432 43.4396 254.432 24.8226 291.666 24.8226" stroke="#2D2D2D" stroke-width="1.8617" fill="none" transform="matrix(1.00052 0 0 1 468.946 269.836)"/><path d="M74.4679 142.73 124.113 142.73 124.113 124.113 167.553 124.113" stroke="#2D2D2D" stroke-width="1.8617" fill="none" transform="matrix(1.00052 0 0 1 468.946 269.836)"/><path d="M204.787 130.319 254.432 130.319 254.432 124.113 291.666 124.113" stroke="#2D2D2D" stroke-width="1.8617" fill="none" transform="matrix(1.00052 0 0 1 468.946 269.836)"/></g></g></svg>